<?xml version="1.0" encoding="UTF-8" standalone="no"?>
<!DOCTYPE svg PUBLIC "-//W3C//DTD SVG 20010904//EN"
              "http://www.w3.org/TR/2001/REC-SVG-20010904/DTD/svg10.dtd">

<svg xmlns="http://www.w3.org/2000/svg"
     width="132.08mm" height="49.7841mm"
     viewBox="0 0 1560 588">
  <path id="Selection"
        fill="none" stroke="black" stroke-width="1"
        d="M 494.00,30.00
           C 494.00,30.00 514.00,30.00 514.00,30.00
             521.91,29.87 519.84,28.02 530.00,28.00
             530.00,28.00 571.00,28.00 571.00,28.00
             574.70,28.01 585.11,29.56 588.72,30.43
             588.72,30.43 593.09,31.99 593.09,31.99
             593.09,31.99 600.83,31.99 600.83,31.99
             600.83,31.99 613.16,35.54 613.16,35.54
             627.72,39.35 641.92,44.28 654.52,52.68
             661.85,57.57 668.92,69.17 675.00,76.00
             675.00,76.00 674.00,80.00 674.00,80.00
             678.36,81.68 678.99,84.73 678.00,89.00
             678.00,89.00 681.00,90.00 681.00,90.00
             681.00,90.00 680.00,93.00 680.00,93.00
             680.00,93.00 683.07,100.58 683.07,100.58
             683.07,100.58 688.01,118.09 688.01,118.09
             688.01,118.09 688.01,124.96 688.01,124.96
             688.01,124.96 690.00,137.00 690.00,137.00
             690.00,137.00 690.00,190.00 690.00,190.00
             690.00,190.00 688.00,205.00 688.00,205.00
             688.00,205.00 686.01,218.09 686.01,218.09
             686.01,218.09 686.01,226.83 686.01,226.83
             686.01,226.83 682.73,238.28 682.73,238.28
             682.73,238.28 680.00,247.00 680.00,247.00
             680.85,250.87 680.04,257.34 676.00,259.00
             676.73,263.03 675.98,265.46 672.00,267.00
             672.00,267.00 673.00,271.00 673.00,271.00
             673.00,271.00 666.00,275.00 666.00,275.00
             666.00,275.00 667.00,277.00 667.00,277.00
             658.58,284.79 649.66,291.94 639.77,297.78
             639.77,297.78 625.39,304.98 625.39,304.98
             625.39,304.98 618.00,308.00 618.00,308.00
             632.14,308.92 658.53,321.91 659.00,338.00
             659.00,338.00 661.00,337.00 661.00,337.00
             661.00,337.00 661.00,369.00 661.00,369.00
             660.98,379.77 659.06,375.50 658.94,385.00
             658.94,385.00 658.94,397.00 658.94,397.00
             658.94,397.00 657.06,405.00 657.06,405.00
             657.06,405.00 657.06,422.00 657.06,422.00
             656.98,433.11 655.02,427.91 655.06,439.00
             655.06,439.00 655.06,451.96 655.06,451.96
             655.06,451.96 656.89,459.09 656.89,459.09
             657.73,466.46 657.83,475.12 663.00,481.00
             663.00,481.00 662.00,483.00 662.00,483.00
             662.00,483.00 665.00,483.00 665.00,483.00
             666.46,490.12 677.88,493.20 683.87,495.11
             686.26,495.87 688.43,496.89 691.00,496.89
             691.00,496.89 700.98,494.89 700.98,494.89
             707.15,493.91 712.44,488.77 715.18,493.56
             715.18,493.56 720.25,513.93 720.25,513.93
             721.56,519.86 727.83,533.25 725.43,538.66
             724.38,541.02 720.98,542.77 718.72,543.82
             718.72,543.82 702.71,549.57 702.71,549.57
             702.71,549.57 697.09,550.26 697.09,550.26
             697.09,550.26 690.91,552.07 690.91,552.07
             690.91,552.07 681.09,552.07 681.09,552.07
             677.37,552.93 677.06,554.32 671.04,553.95
             671.04,553.95 662.96,552.01 662.96,552.01
             662.96,552.01 656.09,552.01 656.09,552.01
             652.55,551.48 644.44,548.19 641.16,546.49
             630.97,541.19 627.66,535.93 621.00,532.00
             621.00,532.00 622.00,528.00 622.00,528.00
             616.43,525.25 613.30,516.09 610.57,510.60
             606.65,502.73 605.33,494.57 603.74,486.09
             603.74,486.09 600.66,473.73 600.66,473.73
             600.66,473.73 600.66,468.58 600.66,468.58
             600.66,468.58 600.02,463.00 600.02,463.00
             600.02,463.00 600.02,442.00 600.02,442.00
             600.00,435.40 598.44,419.98 601.98,415.00
             596.49,407.52 602.43,394.36 601.98,386.01
             601.62,380.45 597.79,375.76 601.98,370.00
             599.39,366.35 598.79,359.60 597.53,355.17
             595.14,346.68 586.78,334.36 578.00,332.00
             578.00,332.00 579.00,330.00 579.00,330.00
             579.00,330.00 574.00,330.00 574.00,330.00
             574.00,330.00 575.00,328.00 575.00,328.00
             575.00,328.00 556.00,324.00 556.00,324.00
             557.83,331.52 557.00,353.03 557.00,362.00
             557.00,362.00 557.00,436.00 557.00,436.00
             557.00,436.00 557.00,460.00 557.00,460.00
             557.00,461.99 557.23,465.81 555.98,467.40
             554.41,469.38 550.30,469.00 548.00,469.00
             548.00,469.00 510.00,469.00 510.00,469.00
             506.80,469.00 498.19,469.64 495.87,467.71
             493.59,465.82 494.00,461.69 494.00,459.00
             494.00,459.00 494.00,30.00 494.00,30.00 Z
           M 740.00,48.00
           C 740.00,48.00 772.00,48.00 772.00,48.00
             781.64,47.98 778.81,46.72 784.09,46.06
             784.09,46.06 804.00,46.06 804.00,46.06
             812.14,46.12 808.46,47.98 819.00,48.00
             819.00,48.00 826.00,48.00 826.00,48.00
             835.38,48.02 832.10,48.83 837.09,49.99
             837.09,49.99 843.83,49.99 843.83,49.99
             843.83,49.99 849.08,51.74 849.08,51.74
             861.55,54.22 873.38,58.76 885.08,63.64
             899.87,69.82 906.54,76.81 915.68,89.58
             919.46,94.86 923.75,98.34 922.00,105.00
             924.67,106.15 924.41,106.18 924.00,109.00
             927.49,110.46 926.87,111.64 926.00,115.00
             929.88,116.61 928.99,119.15 929.00,123.00
             929.00,123.00 931.00,122.00 931.00,122.00
             931.00,122.00 930.00,129.00 930.00,129.00
             930.54,129.49 930.86,129.26 931.46,130.54
             931.46,130.54 934.13,147.00 934.13,147.00
             934.13,147.00 934.13,154.91 934.13,154.91
             935.16,159.90 935.98,156.62 936.00,166.00
             936.00,166.00 936.00,196.00 936.00,196.00
             935.98,205.68 934.79,202.55 934.06,208.04
             934.06,208.04 934.06,221.00 934.06,221.00
             933.90,227.70 932.67,226.51 932.13,231.04
             931.67,234.85 933.09,238.23 930.00,241.00
             930.89,244.72 932.07,247.31 928.00,249.00
             928.98,253.05 930.68,259.06 926.00,261.00
             927.06,264.91 927.61,266.58 924.00,269.00
             924.73,272.45 925.00,272.96 922.00,275.00
             923.34,280.76 920.85,282.44 917.84,287.00
             913.28,293.93 903.20,304.20 896.23,308.72
             896.23,308.72 885.77,315.78 885.77,315.78
             873.36,323.11 850.67,331.95 836.72,335.58
             836.72,335.58 818.04,339.04 818.04,339.04
             818.04,339.04 811.83,340.76 811.83,340.76
             808.64,341.33 805.07,340.52 802.46,343.03
             799.23,346.13 802.98,350.00 803.00,359.00
             803.00,359.00 803.00,479.00 803.00,479.00
             803.00,479.00 740.00,479.00 740.00,479.00
             740.00,479.00 740.00,48.00 740.00,48.00 Z
           M 1321.00,109.00
           C 1319.21,102.65 1320.52,103.51 1321.75,97.93
             1321.75,97.93 1329.75,68.93 1329.75,68.93
             1330.51,65.51 1331.60,57.77 1335.32,56.50
             1337.86,55.64 1342.96,57.78 1345.58,58.66
             1350.64,60.36 1350.05,59.51 1353.72,60.43
             1353.72,60.43 1364.07,63.75 1364.07,63.75
             1364.07,63.75 1384.28,69.27 1384.28,69.27
             1387.10,70.13 1390.63,69.81 1392.18,72.56
             1394.27,76.27 1392.53,82.39 1391.45,86.15
             1391.45,86.15 1388.58,97.72 1388.58,97.72
             1388.58,97.72 1383.25,116.07 1383.25,116.07
             1381.25,125.07 1375.69,144.84 1367.00,149.00
             1367.00,149.00 1368.00,152.00 1368.00,152.00
             1355.86,160.10 1344.61,169.91 1329.00,170.00
             1329.00,170.00 1307.00,170.00 1307.00,170.00
             1307.01,166.68 1306.39,164.34 1309.00,162.00
             1307.94,158.09 1307.39,156.42 1311.00,154.00
             1310.21,150.45 1310.07,150.23 1313.00,148.00
             1313.00,148.00 1312.00,141.00 1312.00,141.00
             1312.00,141.00 1333.82,134.95 1333.82,134.95
             1333.82,134.95 1346.00,123.00 1346.00,123.00
             1346.00,123.00 1346.00,121.00 1346.00,121.00
             1346.00,121.00 1328.00,116.55 1328.00,116.55
             1328.00,116.55 1318.00,113.00 1318.00,113.00
             1318.55,110.13 1318.29,110.13 1321.00,109.00 Z
           M 976.00,95.00
           C 976.00,95.00 989.00,95.00 989.00,95.00
             989.00,95.00 1008.00,93.00 1008.00,93.00
             1008.00,93.00 1021.00,91.06 1021.00,91.06
             1021.00,91.06 1033.00,91.06 1033.00,91.06
             1033.00,91.06 1033.00,105.00 1033.00,105.00
             1036.32,107.98 1035.00,116.64 1035.00,121.00
             1035.00,121.00 1035.00,164.00 1035.00,164.00
             1035.00,164.00 1028.00,164.00 1028.00,164.00
             1028.00,164.00 1018.83,165.76 1018.83,165.76
             1018.83,165.76 1004.00,167.03 1004.00,167.03
             1004.00,167.03 999.00,166.00 999.00,166.00
             996.41,168.89 993.59,167.80 990.01,168.05
             983.78,168.50 987.40,169.99 976.00,170.00
             976.00,170.00 976.00,95.00 976.00,95.00 Z
           M 622.00,147.00
           C 622.00,147.00 611.32,123.47 611.32,123.47
             602.18,109.48 579.65,97.11 563.00,97.00
             563.00,97.00 556.00,97.00 556.00,97.00
             556.00,97.00 557.00,128.00 557.00,128.00
             557.00,128.00 557.00,179.00 557.00,179.00
             557.00,179.00 557.00,230.00 557.00,230.00
             557.00,230.00 556.00,261.00 556.00,261.00
             556.00,261.00 561.00,261.00 561.00,261.00
             568.95,260.88 584.77,254.82 591.52,250.32
             591.52,250.32 596.48,246.23 596.48,246.23
             600.72,243.17 603.43,241.74 606.80,237.26
             606.80,237.26 617.65,219.68 617.65,219.68
             619.36,216.00 619.33,213.43 622.00,210.00
             621.39,205.81 620.98,205.16 624.00,202.00
             623.34,198.07 622.41,196.44 626.00,194.00
             626.00,194.00 625.00,164.00 625.00,164.00
             625.00,164.00 623.00,165.00 623.00,165.00
             623.00,165.00 624.00,157.00 624.00,157.00
             620.47,153.21 620.84,151.86 622.00,147.00 Z
           M 383.06,101.00
           C 383.06,101.00 437.00,101.00 437.00,101.00
             445.82,101.05 445.99,102.65 446.00,111.00
             446.00,111.00 446.00,220.00 446.00,220.00
             446.14,228.09 447.98,224.53 448.00,235.00
             448.00,235.00 448.00,362.00 448.00,362.00
             448.02,371.17 449.77,370.74 449.77,374.00
             449.77,377.26 448.02,376.83 448.00,386.00
             447.96,405.37 445.45,408.81 438.34,426.17
             436.49,430.68 432.32,439.83 428.00,442.00
             428.00,442.00 429.00,446.00 429.00,446.00
             429.00,446.00 422.00,450.00 422.00,450.00
             422.00,450.00 423.00,454.00 423.00,454.00
             420.38,455.12 419.59,455.12 419.00,458.00
             419.00,458.00 416.00,458.00 416.00,458.00
             416.00,458.00 417.00,460.00 417.00,460.00
             412.46,462.05 408.69,465.62 404.53,468.32
             396.55,473.51 384.51,478.98 375.00,479.00
             375.00,479.00 342.00,479.00 342.00,479.00
             336.44,478.99 323.77,476.23 318.29,474.59
             318.29,474.59 312.57,472.08 312.57,472.08
             312.57,472.08 305.01,469.21 305.01,469.21
             305.01,469.21 289.00,460.00 289.00,460.00
             289.00,460.00 290.00,458.00 290.00,458.00
             290.00,458.00 282.00,452.00 282.00,452.00
             282.00,452.00 283.00,450.00 283.00,450.00
             276.91,447.08 274.45,439.40 271.57,433.60
             268.79,428.01 268.10,422.13 266.54,416.16
             265.05,410.47 263.03,404.94 263.00,399.00
             263.00,399.00 263.00,388.00 263.00,388.00
             262.98,376.91 261.02,382.11 261.00,371.00
             261.00,371.00 261.00,269.00 261.00,269.00
             261.02,257.89 262.98,263.09 263.00,252.00
             263.00,252.00 263.00,194.00 263.00,194.00
             263.02,183.06 265.00,188.71 265.00,174.00
             273.25,170.92 282.27,172.00 291.00,172.00
             291.00,172.00 290.00,174.00 290.00,174.00
             290.00,174.00 293.00,174.00 293.00,174.00
             294.00,171.22 297.37,172.01 300.00,172.00
             300.00,172.00 316.00,172.00 316.00,172.00
             316.00,172.00 316.00,257.00 316.00,257.00
             316.02,268.36 317.95,264.88 318.00,275.00
             318.00,275.00 318.00,303.00 318.00,303.00
             318.00,303.00 318.00,353.00 318.00,353.00
             317.98,364.42 315.93,358.55 316.00,371.00
             316.05,378.81 316.97,376.80 317.76,381.17
             318.65,386.00 319.13,391.03 320.75,395.71
             324.72,407.27 336.53,416.75 348.99,415.95
             354.39,415.60 352.54,414.09 361.00,414.00
             361.00,414.00 360.00,412.00 360.00,412.00
             369.92,409.60 369.19,405.26 376.00,402.00
             376.00,402.00 375.00,399.00 375.00,399.00
             375.00,399.00 378.00,398.00 378.00,398.00
             378.00,398.00 377.00,395.00 377.00,395.00
             380.01,391.57 383.90,380.54 384.99,375.91
             384.99,375.91 384.99,369.17 384.99,369.17
             386.00,364.81 386.95,366.89 387.00,359.00
             387.00,359.00 387.00,350.00 387.00,350.00
             387.02,339.84 388.87,341.91 389.00,334.00
             389.00,334.00 389.00,258.00 389.00,258.00
             388.98,247.46 387.12,251.14 387.00,243.00
             387.00,243.00 387.00,193.00 387.00,193.00
             386.98,181.91 385.02,187.11 385.00,176.00
             385.00,176.00 385.00,134.00 385.00,134.00
             384.98,124.36 383.72,127.19 383.06,121.91
             383.06,121.91 383.06,101.00 383.06,101.00 Z
           M 803.00,280.00
           C 807.08,277.00 814.80,277.74 820.00,276.41
             829.08,274.09 845.76,264.01 851.31,256.50
             862.00,242.03 864.80,234.51 868.26,217.08
             869.47,211.02 869.99,214.83 870.00,206.00
             870.00,206.00 870.00,190.00 870.00,190.00
             869.98,180.29 869.16,183.59 867.99,177.00
             867.99,177.00 867.99,172.17 867.99,172.17
             867.99,172.17 866.26,166.91 866.26,166.91
             866.26,166.91 865.57,161.29 865.57,161.29
             864.43,156.91 859.80,148.40 857.22,144.53
             857.22,144.53 852.24,136.04 852.24,136.04
             846.21,128.72 831.65,120.49 822.57,117.68
             818.99,116.58 816.48,117.29 813.04,116.87
             807.53,116.21 810.72,115.03 801.00,115.00
             801.00,115.00 801.00,224.00 801.00,224.00
             801.00,224.00 801.00,257.00 801.00,257.00
             801.00,257.00 800.00,278.00 800.00,278.00
             800.00,278.00 803.00,280.00 803.00,280.00 Z
           M 1082.00,129.00
           C 1082.00,129.00 1096.00,131.00 1096.00,131.00
             1096.00,131.00 1115.00,131.00 1115.00,131.00
             1115.00,131.00 1137.00,133.00 1137.00,133.00
             1137.00,133.00 1144.32,156.43 1144.32,156.43
             1144.32,156.43 1145.47,161.83 1145.47,161.83
             1145.47,161.83 1150.32,174.42 1150.32,174.42
             1150.32,174.42 1155.42,191.87 1155.42,191.87
             1155.42,191.87 1158.31,198.44 1158.31,198.44
             1158.31,198.44 1160.03,205.58 1160.03,205.58
             1160.03,205.58 1168.65,231.17 1168.65,231.17
             1168.65,231.17 1168.00,235.00 1168.00,235.00
             1171.49,236.46 1170.87,237.64 1170.00,241.00
             1173.49,242.46 1172.87,243.64 1172.00,247.00
             1175.45,248.45 1174.72,249.65 1174.00,253.00
             1177.45,254.45 1176.72,255.65 1176.00,259.00
             1179.45,260.45 1178.72,261.65 1178.00,265.00
             1180.94,267.03 1180.58,267.58 1180.00,271.00
             1182.90,273.54 1184.28,280.23 1184.00,284.00
             1188.26,287.22 1187.51,290.97 1189.03,295.58
             1191.74,303.77 1197.77,317.73 1198.00,326.00
             1198.00,326.00 1200.00,326.00 1200.00,326.00
             1200.00,326.00 1200.00,137.00 1200.00,137.00
             1200.00,137.00 1224.00,137.00 1224.00,137.00
             1224.00,137.00 1241.00,139.00 1241.00,139.00
             1241.00,139.00 1262.94,139.00 1262.94,139.00
             1262.94,139.00 1262.94,150.91 1262.94,150.91
             1262.28,156.19 1261.02,153.36 1261.00,163.00
             1261.00,163.00 1261.00,190.00 1261.00,190.00
             1260.98,199.68 1259.79,196.55 1259.06,202.04
             1259.06,202.04 1259.06,216.00 1259.06,216.00
             1258.95,225.69 1257.02,221.06 1257.00,232.00
             1257.00,232.00 1257.00,259.00 1257.00,259.00
             1256.98,269.77 1255.06,265.50 1255.00,275.00
             1255.00,275.00 1255.00,302.00 1255.00,302.00
             1254.98,311.66 1254.10,308.55 1253.10,315.00
             1253.10,315.00 1253.10,328.00 1253.10,328.00
             1252.99,331.32 1253.60,333.67 1250.96,336.00
             1253.45,344.62 1251.11,353.34 1250.96,362.00
             1250.96,362.00 1250.96,375.91 1250.96,375.91
             1250.28,381.19 1249.02,378.36 1249.00,388.00
             1249.00,388.00 1249.00,416.00 1249.00,416.00
             1248.98,426.47 1247.14,422.91 1247.00,431.00
             1247.00,431.00 1247.00,452.00 1247.00,452.00
             1247.00,452.00 1214.00,452.00 1214.00,452.00
             1205.65,452.00 1199.93,452.96 1192.00,450.00
             1190.51,443.36 1187.64,442.31 1189.00,436.00
             1185.55,434.55 1186.28,433.35 1187.00,430.00
             1187.00,430.00 1184.00,430.00 1184.00,430.00
             1184.00,430.00 1185.00,426.00 1185.00,426.00
             1185.00,426.00 1182.00,426.00 1182.00,426.00
             1182.00,426.00 1183.00,422.00 1183.00,422.00
             1183.00,422.00 1176.32,407.97 1176.32,407.97
             1176.32,407.97 1172.10,398.92 1172.10,398.92
             1172.10,398.92 1166.27,384.27 1166.27,384.27
             1166.27,384.27 1151.92,349.43 1151.92,349.43
             1151.92,349.43 1144.02,332.39 1144.02,332.39
             1144.02,332.39 1141.92,326.43 1141.92,326.43
             1141.92,326.43 1133.68,307.56 1133.68,307.56
             1133.68,307.56 1131.10,300.00 1131.10,300.00
             1131.10,300.00 1131.10,349.00 1131.10,349.00
             1131.10,349.00 1131.10,362.00 1131.10,362.00
             1131.34,363.97 1132.05,366.87 1131.10,368.71
             1129.94,371.57 1125.61,371.00 1123.00,371.00
             1123.00,371.00 1076.00,371.00 1076.00,371.00
             1076.00,371.00 1076.00,310.00 1076.00,310.00
             1076.00,310.00 1078.00,293.00 1078.00,293.00
             1078.00,293.00 1078.00,230.00 1078.00,230.00
             1078.00,230.00 1080.00,213.00 1080.00,213.00
             1080.00,213.00 1080.00,184.00 1080.00,184.00
             1080.00,184.00 1082.00,167.00 1082.00,167.00
             1082.00,167.00 1082.00,129.00 1082.00,129.00 Z
           M 1384.00,176.00
           C 1383.61,174.52 1383.23,173.81 1383.35,172.17
             1383.60,168.52 1389.54,158.58 1391.88,155.50
             1399.51,145.48 1406.67,139.93 1417.80,134.37
             1417.80,134.37 1424.29,131.43 1424.29,131.43
             1424.29,131.43 1429.91,130.74 1429.91,130.74
             1434.18,129.94 1432.54,129.10 1439.00,129.00
             1439.00,129.00 1450.00,129.00 1450.00,129.00
             1459.44,129.02 1475.61,134.13 1483.72,139.01
             1483.72,139.01 1494.74,147.22 1494.74,147.22
             1497.98,149.76 1500.80,150.31 1504.62,154.36
             1504.62,154.36 1508.23,159.52 1508.23,159.52
             1508.23,159.52 1512.32,164.48 1512.32,164.48
             1515.69,169.54 1523.14,185.37 1524.57,191.28
             1525.23,194.02 1524.89,197.15 1525.09,200.00
             1525.09,200.00 1526.00,213.00 1526.00,213.00
             1526.00,213.00 1525.00,229.00 1525.00,229.00
             1525.00,229.00 1509.00,225.45 1509.00,225.45
             1509.00,225.45 1502.09,224.89 1502.09,224.89
             1502.09,224.89 1495.91,223.26 1495.91,223.26
             1495.91,223.26 1489.00,222.74 1489.00,222.74
             1489.00,222.74 1468.00,219.00 1468.00,219.00
             1468.11,209.04 1471.85,207.70 1472.00,199.00
             1472.17,188.42 1473.58,178.34 1467.26,169.25
             1462.16,161.91 1455.20,164.28 1448.81,167.84
             1439.29,173.14 1436.14,180.83 1433.58,190.72
             1432.45,195.07 1432.09,193.68 1432.00,199.00
             1431.79,211.94 1437.17,227.30 1445.69,237.24
             1452.99,245.75 1462.35,251.88 1470.81,259.06
             1470.81,259.06 1486.00,273.00 1486.00,273.00
             1486.49,277.81 1491.67,282.41 1494.32,286.47
             1494.32,286.47 1506.32,310.43 1506.32,310.43
             1506.32,310.43 1512.57,329.28 1512.57,329.28
             1512.57,329.28 1513.46,335.83 1513.46,335.83
             1515.28,343.25 1516.99,344.68 1517.00,353.00
             1517.00,353.00 1517.00,392.00 1517.00,392.00
             1516.99,400.83 1516.37,397.16 1515.26,403.09
             1515.26,403.09 1514.57,408.72 1514.57,408.72
             1514.57,408.72 1509.71,423.27 1509.71,423.27
             1506.60,432.33 1502.69,440.23 1496.78,447.74
             1493.70,451.66 1494.07,453.58 1489.00,456.00
             1489.00,456.00 1490.00,458.00 1490.00,458.00
             1479.99,465.19 1469.46,474.22 1457.56,478.31
             1457.56,478.31 1452.16,479.46 1452.16,479.46
             1434.54,484.07 1438.40,483.04 1420.00,483.00
             1412.93,482.99 1407.54,481.22 1400.84,479.46
             1400.84,479.46 1387.00,475.87 1387.00,475.87
             1367.29,468.21 1351.21,451.75 1343.02,432.39
             1343.02,432.39 1336.45,412.00 1336.45,412.00
             1336.45,412.00 1335.74,406.09 1335.74,406.09
             1334.94,401.82 1334.10,403.46 1334.00,397.00
             1334.00,397.00 1334.00,388.00 1334.00,388.00
             1333.98,378.83 1332.23,379.26 1332.23,376.00
             1332.23,372.88 1333.88,372.69 1334.00,366.00
             1334.00,366.00 1334.00,351.00 1334.00,351.00
             1334.13,342.81 1336.00,347.11 1336.00,334.00
             1336.00,334.00 1345.09,335.74 1345.09,335.74
             1345.09,335.74 1351.00,336.26 1351.00,336.26
             1351.00,336.26 1363.28,339.18 1363.28,339.18
             1363.28,339.18 1377.00,341.07 1377.00,341.07
             1377.00,341.07 1383.83,341.07 1383.83,341.07
             1383.83,341.07 1389.09,342.99 1389.09,342.99
             1389.09,342.99 1396.83,342.99 1396.83,342.99
             1396.83,342.99 1405.00,345.00 1405.00,345.00
             1405.00,345.00 1399.46,363.17 1399.46,363.17
             1399.46,363.17 1398.76,368.83 1398.76,368.83
             1398.76,368.83 1397.07,375.04 1397.07,375.04
             1397.07,375.04 1397.07,396.00 1397.07,396.00
             1397.12,403.00 1401.79,414.03 1409.00,416.00
             1409.00,416.00 1408.00,418.00 1408.00,418.00
             1414.24,418.41 1416.52,420.93 1419.88,420.81
             1434.09,420.26 1433.84,412.38 1443.00,408.00
             1443.00,408.00 1442.00,405.00 1442.00,405.00
             1442.00,405.00 1445.00,404.00 1445.00,404.00
             1445.00,404.00 1444.00,401.00 1444.00,401.00
             1449.50,394.74 1455.95,373.32 1456.00,365.00
             1456.10,349.68 1454.04,356.76 1454.00,345.00
             1454.00,345.00 1452.00,346.00 1452.00,346.00
             1450.36,334.32 1436.34,319.00 1427.26,311.78
             1427.26,311.78 1422.04,308.24 1422.04,308.24
             1422.04,308.24 1398.76,284.96 1398.76,284.96
             1398.76,284.96 1395.24,279.73 1395.24,279.73
             1389.81,272.39 1379.50,258.52 1382.00,249.00
             1382.00,249.00 1379.59,247.41 1379.59,247.41
             1379.59,247.41 1377.21,235.91 1377.21,235.91
             1377.21,235.91 1378.00,231.00 1378.00,231.00
             1374.12,229.39 1375.01,226.85 1375.00,223.00
             1374.99,219.92 1374.63,207.45 1375.57,205.41
             1376.24,203.96 1376.88,203.84 1378.00,203.00
             1377.59,201.52 1377.22,200.70 1377.23,199.09
             1377.23,199.09 1380.27,182.72 1380.27,182.72
             1381.33,179.18 1380.30,177.54 1384.00,176.00 Z
           M 26.00,145.00
           C 26.00,145.00 98.00,145.00 98.00,145.00
             98.00,145.00 128.00,145.00 128.00,145.00
             136.13,145.05 134.65,146.28 140.00,147.05
             140.00,147.05 148.83,147.05 148.83,147.05
             148.83,147.05 163.00,151.16 163.00,151.16
             181.57,155.56 198.54,167.76 209.22,183.53
             212.04,187.70 216.69,195.33 217.78,200.17
             220.65,212.87 222.19,219.75 222.00,233.00
             221.90,239.70 220.67,238.51 219.95,243.04
             219.95,243.04 219.95,250.83 219.95,250.83
             218.09,260.35 212.91,273.47 208.22,281.99
             208.22,281.99 199.63,295.65 199.63,295.65
             198.00,297.48 194.47,300.02 195.11,302.77
             195.55,304.61 199.54,308.20 201.00,309.67
             204.66,313.34 206.51,316.18 209.33,320.47
             217.98,333.65 222.44,343.62 226.46,358.84
             227.97,364.56 229.90,366.56 230.00,373.00
             230.00,373.00 230.00,394.00 230.00,394.00
             229.99,401.70 227.54,407.22 225.03,414.42
             222.05,422.91 223.25,419.92 218.72,427.23
             212.50,437.29 215.13,434.21 206.33,443.00
             206.33,443.00 200.26,448.80 200.26,448.80
             200.26,448.80 187.21,456.67 187.21,456.67
             183.49,458.73 176.65,462.39 172.71,463.61
             172.71,463.61 162.00,465.25 162.00,465.25
             162.00,465.25 143.00,469.00 143.00,469.00
             143.00,469.00 120.00,469.00 120.00,469.00
             113.30,468.90 114.49,467.67 109.96,467.13
             105.32,466.57 97.24,468.62 94.00,465.00
             85.41,467.44 76.68,465.04 68.00,465.00
             68.00,465.00 39.00,464.00 39.00,464.00
             30.24,463.94 31.00,462.66 31.00,452.00
             39.05,450.90 47.20,447.20 52.62,440.96
             55.62,437.51 57.30,432.78 61.00,430.00
             60.52,427.29 61.48,417.72 63.00,415.54
             63.85,414.34 64.36,414.43 65.00,414.00
             65.00,414.00 65.00,405.00 65.00,405.00
             61.45,402.34 61.88,401.08 63.00,397.00
             59.69,394.69 60.10,392.80 60.00,389.00
             67.36,387.92 69.29,383.22 72.70,377.51
             81.46,362.85 84.29,354.31 84.00,337.00
             83.90,331.29 83.46,333.01 82.43,328.72
             82.43,328.72 81.53,322.17 81.53,322.17
             81.53,322.17 77.84,313.00 77.84,313.00
             76.45,309.17 74.29,308.09 74.23,305.00
             74.23,305.00 81.99,284.91 81.99,284.91
             81.99,284.91 81.99,280.17 81.99,280.17
             81.99,280.17 83.74,274.91 83.74,274.91
             84.12,272.77 84.12,264.23 83.74,262.09
             83.74,262.09 82.24,256.83 82.24,256.83
             80.56,247.68 80.43,246.34 76.17,237.80
             72.94,231.33 68.50,224.54 62.00,221.00
             62.00,221.00 64.00,207.00 64.00,207.00
             64.00,207.00 65.00,190.00 65.00,190.00
             61.55,188.55 62.28,187.35 63.00,184.00
             63.00,184.00 60.00,184.00 60.00,184.00
             60.00,184.00 61.00,180.00 61.00,180.00
             57.25,177.18 55.85,172.62 53.13,169.82
             51.94,168.60 49.75,167.27 48.27,166.31
             39.51,160.56 36.02,162.00 26.00,162.00
             26.00,162.00 26.00,145.00 26.00,145.00 Z
           M 970.00,353.00
           C 970.00,353.00 970.00,319.00 970.00,319.00
             970.00,319.00 970.00,251.00 970.00,251.00
             970.02,240.53 971.86,244.09 972.00,236.00
             972.00,236.00 972.00,196.00 972.00,196.00
             972.00,193.31 971.59,189.18 973.87,187.29
             976.18,185.37 983.86,186.05 987.00,186.00
             994.73,185.87 992.29,184.12 1000.00,184.00
             1000.00,184.00 1008.00,184.00 1008.00,184.00
             1014.52,183.89 1013.18,182.94 1017.17,182.05
             1017.17,182.05 1023.96,182.05 1023.96,182.05
             1023.96,182.05 1031.00,180.00 1031.00,180.00
             1031.00,180.00 1031.00,253.00 1031.00,253.00
             1030.98,263.47 1029.14,259.91 1029.00,268.00
             1029.00,268.00 1029.00,306.00 1029.00,306.00
             1029.00,311.46 1030.29,318.39 1027.00,323.00
             1030.32,325.98 1029.00,334.64 1029.00,339.00
             1029.00,339.00 1029.00,364.00 1029.00,364.00
             1028.98,375.11 1027.02,369.91 1027.00,381.00
             1027.00,381.00 1027.00,426.00 1027.00,426.00
             1026.98,437.11 1025.02,431.91 1025.00,443.00
             1025.00,443.00 1025.00,491.00 1025.00,491.00
             1025.00,491.00 966.00,491.00 966.00,491.00
             966.00,491.00 966.00,419.00 966.00,419.00
             966.02,408.84 967.87,410.91 968.00,403.00
             968.00,403.00 968.00,367.00 968.00,367.00
             968.00,362.89 966.81,355.86 970.00,353.00 Z
           M 127.00,204.00
           C 127.00,204.00 124.00,204.00 124.00,204.00
             124.00,204.00 123.05,209.10 123.05,209.10
             123.05,209.10 123.05,237.00 123.05,237.00
             123.02,246.66 123.90,243.55 124.79,250.00
             125.57,255.62 125.30,276.67 124.00,282.00
             124.00,282.00 128.00,282.00 128.00,282.00
             135.29,281.99 148.42,278.38 154.52,274.32
             154.52,274.32 159.48,270.23 159.48,270.23
             161.02,269.11 162.43,268.63 163.77,267.16
             168.90,261.53 172.90,252.60 172.86,245.00
             172.86,245.00 172.86,233.00 172.86,233.00
             173.00,230.89 173.10,228.32 172.86,226.29
             170.62,218.80 161.67,211.14 154.56,208.69
             149.20,206.85 143.01,206.80 138.00,204.00
             135.43,205.89 128.50,207.76 127.00,204.00 Z
           M 152.00,332.00
           C 152.00,332.00 139.91,330.06 139.91,330.06
             139.91,330.06 125.00,330.06 125.00,330.06
             125.00,330.06 125.00,408.00 125.00,408.00
             125.00,408.00 139.00,408.00 139.00,408.00
             149.63,407.98 166.27,401.60 172.32,392.52
             173.47,390.79 178.09,381.56 178.57,379.71
             179.74,375.18 177.81,373.33 181.00,369.00
             181.00,369.00 181.00,367.00 181.00,367.00
             178.02,362.96 179.54,361.56 178.76,357.17
             178.76,357.17 176.62,350.27 176.62,350.27
             173.10,340.19 161.17,334.29 151.00,334.00
             151.00,334.00 152.00,332.00 152.00,332.00 Z
           M 802.00,358.00
           C 802.00,358.00 801.00,358.00 801.00,358.00
             801.00,358.00 802.00,359.00 802.00,359.00
             802.00,359.00 802.00,358.00 802.00,358.00 Z
           M 1190.00,440.00
           C 1190.00,440.00 1189.00,440.00 1189.00,440.00
             1189.00,440.00 1190.00,441.00 1190.00,441.00
             1190.00,441.00 1190.00,440.00 1190.00,440.00 Z
           M 1192.00,444.00
           C 1192.00,444.00 1191.00,444.00 1191.00,444.00
             1191.00,444.00 1192.00,445.00 1192.00,445.00
             1192.00,445.00 1192.00,444.00 1192.00,444.00 Z" />
</svg>
