<?xml version="1.0" encoding="UTF-8"?>
<svg version="1.1" xmlns="http://www.w3.org/2000/svg" width="860" height="375">
<path d="M0 0 C1.14469505 -0.00143509 1.14469505 -0.00143509 2.31251526 -0.00289917 C3.92554812 -0.00357924 5.53858373 -0.00173701 7.15161133 0.00244141 C9.61611104 0.00778476 12.08042789 0.00249439 14.54492188 -0.00390625 C16.11328165 -0.00324529 17.68164131 -0.00196377 19.25 0 C19.98552597 -0.00202423 20.72105194 -0.00404846 21.47886658 -0.00613403 C24.85591897 0.00927697 27.96323547 0.07719699 31.19140625 1.1328125 C31.19140625 1.7928125 31.19140625 2.4528125 31.19140625 3.1328125 C31.85140625 3.1328125 32.51140625 3.1328125 33.19140625 3.1328125 C34.90336252 6.11741404 35.44257952 8.2596169 35.44969177 11.68891907 C35.45993378 13.05298637 35.45993378 13.05298637 35.47038269 14.4446106 C35.46655327 15.93056229 35.46655327 15.93056229 35.46264648 17.4465332 C35.46787323 18.49591568 35.47309998 19.54529816 35.47848511 20.6264801 C35.48873003 22.90723995 35.49450637 25.18802321 35.4963665 27.46880531 C35.50003188 31.09008766 35.51676796 34.71109654 35.53712463 38.33232117 C35.59249053 48.62945438 35.62308175 58.92662932 35.64770508 69.22387695 C35.66367877 75.52447697 35.69401017 81.8248865 35.73246956 88.12538719 C35.74404469 90.51609443 35.75004925 92.90683592 35.75015068 95.29757118 C35.26018405 118.82486415 35.26018405 118.82486415 43.88671875 140.1796875 C45.19140625 142.1328125 45.19140625 142.1328125 46.19140625 145.1328125 C48.05364414 146.21782689 48.05364414 146.21782689 50.19140625 147.1328125 C51.38409422 147.93767765 52.57144031 148.7505035 53.75390625 149.5703125 C64.48825263 156.25209717 77.33343122 156.66533256 89.44140625 153.9453125 C100.4373077 150.79110969 110.602536 145.57865581 116.4609375 135.375 C126.10124813 117.3749159 125.3211696 98.60850806 125.36007118 78.63539886 C125.36989797 74.64021915 125.39577627 70.64518545 125.42039013 66.65007401 C125.46566612 59.25191948 125.50384551 51.85385284 125.51733398 44.45556641 C125.52740267 39.26811979 125.55666431 34.08108887 125.59865379 28.89380646 C125.61094872 26.92746365 125.61608781 24.96106229 125.61385536 22.99468231 C125.61150715 20.25739131 125.63361973 17.52130755 125.66137695 14.78417969 C125.65477554 13.97794662 125.64817413 13.17171356 125.64137268 12.34104919 C125.70361216 8.60700724 126.05235591 6.35719219 128.03703308 3.15460205 C131.93455204 -0.50305727 136.13421514 -0.04193803 141.18359375 -0.0703125 C142.35802536 -0.07886261 142.35802536 -0.07886261 143.55618286 -0.08758545 C145.21208346 -0.09702595 146.86800276 -0.10356566 148.52392578 -0.10742188 C151.05013991 -0.11712502 153.57553933 -0.14815532 156.1015625 -0.1796875 C157.71223476 -0.18621825 159.32291283 -0.19146844 160.93359375 -0.1953125 C161.68583221 -0.2076593 162.43807068 -0.2200061 163.21310425 -0.23272705 C167.77257469 -0.21347324 170.72750091 0.09696488 174.19140625 3.1328125 C174.69947281 6.18493551 174.86283111 8.68699887 174.81959534 11.74468994 C174.82668972 12.63505125 174.83378411 13.52541255 174.84109348 14.44275451 C174.85875542 17.43915791 174.84052627 20.43427807 174.82250977 23.43066406 C174.82764589 25.57423495 174.83492483 27.71780163 174.8441925 29.86135864 C174.86276707 35.69687063 174.84972422 41.53192786 174.83010221 47.36742115 C174.81373904 53.47833109 174.82252653 59.58921167 174.82762146 65.70013428 C174.83214913 75.97659572 174.81624097 86.25287559 174.78833008 96.52929688 C174.75637745 108.38466818 174.75625209 120.23971008 174.77354485 132.09510446 C174.78946108 143.51225397 174.78263702 154.92928357 174.76560783 166.34642792 C174.75876184 171.19613617 174.7597449 176.0457476 174.76715279 180.89545441 C174.77486517 186.62470056 174.76252866 192.35357661 174.73530388 198.08275986 C174.72846676 200.17600024 174.7282713 202.2692755 174.73551941 204.3625145 C174.78209728 219.57828491 173.31650895 232.95361231 166.50390625 246.8203125 C166.15996826 247.52961914 165.81603027 248.23892578 165.46166992 248.96972656 C154.96966983 269.89221785 135.97153294 286.77739548 114.19140625 295.1328125 C103.56156803 298.64978973 93.69375779 300.28583151 82.53515625 300.37109375 C81.51522583 300.3791655 80.49529541 300.38723724 79.44445801 300.39555359 C77.2894864 300.40934036 75.13449345 300.42008651 72.97949219 300.42797852 C70.80169152 300.43945935 68.62391811 300.45984871 66.44628906 300.48950195 C50.20522743 300.71020876 36.30887574 299.71320661 21.50390625 292.4453125 C20.7975 292.105 20.09109375 291.7646875 19.36328125 291.4140625 C12.6697996 288.07339562 6.93307305 283.93880027 1.19140625 279.1328125 C-0.00548828 278.17955078 -0.00548828 278.17955078 -1.2265625 277.20703125 C-11.94524176 268.29632199 -24.5429472 252.80040483 -26.24609375 238.4453125 C-25.71168059 234.3990414 -24.87354176 233.72409818 -21.80859375 231.1328125 C-17.83407182 228.82029255 -13.69722189 226.84417525 -9.55615234 224.84960938 C-7.57007976 223.8883716 -5.59780464 222.90218715 -3.625 221.9140625 C-2.34841895 221.29270143 -1.07109716 220.67285942 0.20703125 220.0546875 C1.92841309 219.21309082 1.92841309 219.21309082 3.68457031 218.35449219 C7.92450058 216.87742375 10.72894105 216.78288407 15.19140625 217.1328125 C19.27256056 219.91994227 20.95903704 223.46662032 23.31640625 227.7578125 C31.31174381 241.69401116 42.86878627 249.70592547 58.01171875 254.2890625 C72.96023528 257.77597348 87.74509764 256.37230441 101.40625 248.92578125 C114.04015481 240.79259429 120.85231201 230.66049479 124.19140625 216.1328125 C124.82120823 212.45455721 125.08047325 208.86112579 125.19140625 205.1328125 C125.23136719 203.83730469 125.27132812 202.54179687 125.3125 201.20703125 C125.45886781 193.92693469 125.20674581 187.18650096 123.19140625 180.1328125 C117.66728711 180.51821616 115.94169424 182.21205687 112.19140625 186.1328125 C94.55274642 199.79742419 74.53332769 204.95804423 52.37890625 202.3828125 C36.55244341 200.30370907 23.94118341 194.73534737 11.19140625 185.1328125 C10.18078125 184.4109375 9.17015625 183.6890625 8.12890625 182.9453125 C-5.11390777 171.38590704 -13.15724069 152.34723543 -14.80859375 135.1328125 C-14.95817707 130.97242824 -14.95547612 126.81435565 -14.95385742 122.65161133 C-14.95721603 121.40855728 -14.96057465 120.16550323 -14.96403503 118.88478088 C-14.97188171 115.49245425 -14.97521095 112.10018883 -14.97585082 108.70785737 C-14.97656347 106.58694527 -14.97870175 104.46603953 -14.98134804 102.34512901 C-14.99058172 94.94240285 -14.99468494 87.53969463 -14.99389648 80.13696289 C-14.99329452 73.24032384 -15.00387452 66.3437627 -15.01964015 59.44714338 C-15.03270983 53.51832264 -15.0380807 47.58952743 -15.03744107 41.66069239 C-15.03718615 38.12271832 -15.04003525 34.58481372 -15.05061913 31.04685402 C-15.06208725 27.10648152 -15.05755684 23.16621657 -15.05151367 19.22583008 C-15.05713318 18.05431396 -15.06275269 16.88279785 -15.06854248 15.67578125 C-15.06434799 14.60338699 -15.0601535 13.53099274 -15.05583191 12.42610168 C-15.05637668 11.49496457 -15.05692144 10.56382746 -15.05748272 9.60447407 C-14.79577419 7.00550429 -14.12646055 5.36708023 -12.80859375 3.1328125 C-12.14859375 3.1328125 -11.48859375 3.1328125 -10.80859375 3.1328125 C-10.80859375 2.4728125 -10.80859375 1.8128125 -10.80859375 1.1328125 C-7.15798811 -0.08405605 -3.80019212 -0.01042975 0 0 Z " fill="#AE77FD" transform="translate(685.80859375,74.8671875)"/>
<path d="M0 0 C0 0.66 0 1.32 0 2 C0.99 2 1.98 2 3 2 C3 2.66 3 3.32 3 4 C3.57234375 4.25910156 4.1446875 4.51820312 4.734375 4.78515625 C17.84510382 11.81521946 27.46284913 27.5946332 31.75488281 41.43408203 C34.55758782 51.53557699 36.49113237 61.74965923 37.640625 72.1640625 C37.915596 75.07087775 37.915596 75.07087775 39 78 C39.25782805 81.74553837 39.23139543 85.49652768 39.25 89.25 C39.2809375 90.78720703 39.2809375 90.78720703 39.3125 92.35546875 C39.34346705 98.37081736 38.94431032 102.71167565 36 108 C32.65485533 111.34514467 29.17516367 111.12623179 24.60386658 111.14476013 C23.50886337 111.15165863 22.41386017 111.15855713 21.28567505 111.16566467 C19.49092239 111.16958473 19.49092239 111.16958473 17.65991211 111.17358398 C15.72013939 111.18384827 13.78036668 111.19411473 11.84059441 111.20446312 C9.75816813 111.21468333 7.6757442 111.22253995 5.59330559 111.22979546 C1.25288289 111.24526219 -3.08746725 111.26920942 -7.42784119 111.29469299 C-19.7689862 111.36586378 -32.11017191 111.42574795 -44.45141602 111.47680664 C-51.26970446 111.50509032 -58.08791983 111.540456 -64.90613168 111.58346039 C-69.22222853 111.61025461 -73.53824277 111.62814577 -77.85440648 111.63949764 C-81.16609716 111.65074978 -84.47767132 111.67487529 -87.78930664 111.69702148 C-88.98783264 111.69761063 -90.18635864 111.69819977 -91.42120361 111.69880676 C-93.05947868 111.71338425 -93.05947868 111.71338425 -94.73085022 111.72825623 C-96.15690629 111.73460413 -96.15690629 111.73460413 -97.61177158 111.74108028 C-100.2642961 111.84268418 -100.2642961 111.84268418 -103 114 C-102.5850707 124.78816185 -97.03001401 134.00018706 -89.67578125 141.67578125 C-75.03200546 154.39555731 -58.53732437 156.04577213 -39.81542969 155.20703125 C-24.64066751 154.09116251 -12.08754867 147.21114825 -1.21484375 136.90234375 C1.92114974 134.20881848 3.88112627 133.32304892 8 133 C14.36082117 136.09753344 18.45096392 141.74899466 23 147 C23.80050781 147.89074219 24.60101563 148.78148437 25.42578125 149.69921875 C26.15152344 150.54097656 26.87726563 151.38273438 27.625 152.25 C28.27726563 152.99765625 28.92953125 153.7453125 29.6015625 154.515625 C31.53302636 157.94694068 31.54516058 160.11948687 31 164 C29.12109375 166.703125 29.12109375 166.703125 26.4375 169.25 C25.95732422 169.70673096 25.47714844 170.16346191 24.98242188 170.6340332 C20.87717924 174.43060612 16.48222264 177.85021958 12 181.1875 C11.35345459 181.66928711 10.70690918 182.15107422 10.04077148 182.64746094 C5.37975976 186 5.37975976 186 2 186 C2 186.66 2 187.32 2 188 C-16.22173912 196.97562048 -33.0415263 200.37189756 -53.5 200.25 C-54.79808594 200.25773438 -56.09617187 200.26546875 -57.43359375 200.2734375 C-69.14320809 200.25004167 -80.73162903 199.29379747 -91.875 195.5 C-92.62547607 195.24500732 -93.37595215 194.99001465 -94.14916992 194.72729492 C-116.95816023 186.47560283 -135.98673856 168.53145842 -146.42163086 146.828125 C-159.10286532 119.27912106 -160.1808894 81.77265737 -150 53 C-145.51014425 41.53917798 -139.95074573 31.42310605 -132 22 C-131.42765625 21.278125 -130.8553125 20.55625 -130.265625 19.8125 C-101.02214557 -15.83669398 -38.63606806 -26.87402807 0 0 Z M-94.02734375 46.6015625 C-99.79452533 53.61354169 -104.85253743 61.62208825 -104 71 C-101.41402165 73.58597835 -99.64974825 73.24881536 -96.12532043 73.28216553 C-94.8924958 73.2784494 -94.8924958 73.2784494 -93.63476562 73.2746582 C-92.76961838 73.27976913 -91.90447113 73.28488007 -91.0131073 73.29014587 C-88.14408514 73.30408311 -85.27530205 73.30308217 -82.40625 73.30078125 C-80.4184968 73.3046656 -78.43074444 73.30899972 -76.44299316 73.31376648 C-72.27332877 73.32123736 -68.10374903 73.32093091 -63.93408203 73.31567383 C-58.58029233 73.30987473 -53.22684808 73.32681667 -47.87311554 73.3500185 C-43.76741496 73.36472082 -39.66179828 73.36563239 -35.55607605 73.36250877 C-33.58163264 73.36302364 -31.60718473 73.36829222 -29.63276672 73.37832069 C-26.87669138 73.39060165 -24.12129808 73.38394423 -21.36523438 73.37231445 C-20.54335129 73.37995819 -19.7214682 73.38760193 -18.87467957 73.39547729 C-16.37779833 73.40759802 -16.37779833 73.40759802 -13 73 C-10.07135164 68.60702746 -11.35618127 65.45911547 -12.24609375 60.421875 C-14.38409264 50.71779716 -18.21204382 43.22597463 -26.359375 37.27734375 C-48.45684539 23.31201697 -76.17080609 27.61076201 -94.02734375 46.6015625 Z " fill="#AE77FC" transform="translate(399,84)"/>
<path d="M0 0 C1.41706741 -0.00422974 1.41706741 -0.00422974 2.86276245 -0.00854492 C3.89873062 -0.00652069 4.93469879 -0.00449646 6.00205994 -0.00241089 C7.64253296 -0.00503937 7.64253296 -0.00503937 9.31614685 -0.00772095 C12.96138568 -0.01214646 16.60657639 -0.00919116 20.2518158 -0.00582886 C22.81492115 -0.00650357 25.37802645 -0.00747499 27.94113159 -0.00872803 C33.34930581 -0.01020744 38.75746224 -0.00814626 44.16563416 -0.00338745 C49.62983604 0.00136716 55.09401052 0.00150274 60.55821228 -0.00338745 C78.50727539 -0.01881155 96.45541847 0.01432659 114.40415955 0.12698364 C115.53221764 0.13347427 116.66027573 0.1399649 117.8225174 0.14665222 C123.97796664 0.1846229 130.13234577 0.24464445 136.28712273 0.34405899 C138.09153725 0.37090457 139.89606076 0.39131106 141.70062447 0.40481186 C144.13568356 0.42490196 146.56897462 0.46972523 149.00352478 0.52200317 C150.05529687 0.52325888 150.05529687 0.52325888 151.12831688 0.52453995 C154.43287555 0.62376806 156.15547687 0.93526166 158.80419922 2.97729492 C161.77447614 6.96812562 161.57873493 10.88092793 161.60728455 15.64651489 C161.61298462 16.38270554 161.61868469 17.11889618 161.6245575 17.87739563 C161.63399711 19.4349423 161.64053736 20.99250885 161.64439392 22.55007935 C161.65408185 24.9204745 161.6851063 27.28999567 161.71665955 29.66018677 C161.72319196 31.17645768 161.72844149 32.69273478 161.73228455 34.20901489 C161.75080475 35.26400932 161.75080475 35.26400932 161.7696991 36.34031677 C161.74223801 42.47625645 159.76802772 46.86538982 155.80259705 51.45901489 C155.31686218 52.02539673 154.83112732 52.59177856 154.33067322 53.17532349 C153.81867371 53.75749634 153.30667419 54.33966919 152.77915955 54.93948364 C152.24717957 55.55259399 151.71519958 56.16570435 151.167099 56.7973938 C147.48923373 60.99703998 143.67525644 65.0140409 139.6346283 68.86917114 C137.70896242 70.81844413 135.92921558 72.81025605 134.1424408 74.88479614 C129.80008128 79.89043468 125.09305392 84.48960065 120.36509705 89.12698364 C116.43874191 93.00785976 112.71308331 96.98442852 109.11021423 101.16702271 C106.33356907 104.35690641 103.4283323 107.42379938 100.52915955 110.50198364 C95.85539487 115.48610107 91.23005415 120.50442581 86.6815033 125.60354614 C84.96008257 127.51098661 83.22496783 129.39872382 81.4705658 131.27542114 C70.49120266 142.20122224 70.49120266 142.20122224 62.40415955 155.12698364 C62.55097416 157.30021934 62.55097416 157.30021934 63.40415955 159.12698364 C65.92456493 160.38718634 67.74298508 160.31951733 70.56822205 160.40823364 C71.72289978 160.44464966 72.87757751 160.48106567 74.06724548 160.51858521 C76.02839294 160.57224243 76.02839294 160.57224243 78.02915955 160.62698364 C79.42271764 160.67082087 80.81627219 160.71477077 82.20982361 160.75881958 C92.30518582 161.05717664 102.39856515 161.16723017 112.49766159 161.2230835 C116.85230112 161.24979338 121.20685044 161.28931547 125.56139565 161.32824707 C129.95002909 161.36560016 134.33804532 161.38009226 138.72682762 161.37925339 C141.51403092 161.38391009 144.30078288 161.40926309 147.08781052 161.43985748 C149.03289526 161.45477773 150.97812156 161.44445641 152.92323303 161.43356323 C161.47174446 161.55323756 161.47174446 161.55323756 165.70005798 164.15505981 C167.86895166 167.93757311 168.09086727 171.10239127 167.99790955 175.34963989 C167.99794983 176.13213608 167.99799011 176.91463226 167.99803162 177.72084045 C167.99268743 179.36908027 167.97515152 181.01732038 167.94615173 182.66531372 C167.90423029 185.18523101 167.90509093 187.70247889 167.91197205 190.22268677 C167.90148076 191.82752301 167.88854298 193.43234551 167.87290955 195.03713989 C167.87270813 195.78826553 167.87250671 196.53939117 167.87229919 197.3132782 C167.8016438 200.44069596 167.58701967 202.77776966 166.12486267 205.57009888 C162.58249185 208.77522071 158.23573596 208.25437504 153.66151428 208.26069641 C152.64593329 208.26409475 152.64593329 208.26409475 151.60983551 208.26756173 C149.34220349 208.27388946 147.07463144 208.27307316 144.80699158 208.27224731 C143.18068871 208.27523957 141.55438655 208.27864225 139.92808533 208.28242493 C135.51070104 208.29126233 131.09333612 208.29360293 126.67594385 208.29424071 C122.98807949 208.29519028 119.30021964 208.29886913 115.61235702 208.30241281 C106.91128236 208.31055637 98.21021805 208.31299713 89.50914001 208.31228638 C80.53416257 208.31168558 71.55924523 208.32223794 62.58428299 208.33803004 C54.87801236 208.35110648 47.17176137 208.35647023 39.46547973 208.35583097 C34.86323234 208.35557601 30.26103837 208.35842586 25.65880203 208.36900902 C21.32992501 208.37869174 17.00115244 208.37876798 12.67227173 208.37149239 C11.08480553 208.37044676 9.49733281 208.37280811 7.90987778 208.37885284 C5.74005327 208.38657904 3.57058894 208.38192401 1.40077209 208.3742218 C-0.41935048 208.37503895 -0.41935048 208.37503895 -2.27624321 208.37587261 C-5.6845825 208.12033015 -8.41606522 207.34859593 -11.59584045 206.12698364 C-13.0885671 199.88385636 -12.81947276 193.52439338 -12.83607483 187.14505005 C-12.84575099 184.89776166 -12.87679567 182.65140048 -12.90834045 180.40432739 C-13.05196712 162.50077838 -13.05196712 162.50077838 -6.11927795 155.13479614 C-4.7497968 153.8264274 -3.36639323 152.53250691 -1.97084045 151.25198364 C-0.51271119 149.85740678 0.94173627 148.45896996 2.3924408 147.05667114 C3.08934021 146.38474731 3.78623962 145.71282349 4.5042572 145.02053833 C7.71839732 141.81713679 10.46813787 138.32719427 13.2752533 134.76370239 C16.96065682 130.19921179 20.99379297 125.94896473 24.98814392 121.65628052 C26.41218609 120.11831498 27.8240128 118.57001886 29.23228455 117.01760864 C34.14985261 111.60144194 39.1667556 106.32757099 44.37290955 101.18557739 C46.81093662 98.71473072 49.0670609 96.12397482 51.32603455 93.49026489 C54.12262338 90.3099336 57.01429956 87.22244793 59.90415955 84.12698364 C66.79239907 76.75015933 66.79239907 76.75015933 73.40415955 69.12698364 C73.85098083 68.59540649 74.29780212 68.06382935 74.75816345 67.5161438 C76.3008606 65.66899979 77.82297857 63.8064064 79.34165955 61.93948364 C79.8393988 61.3445813 80.33713806 60.74967896 80.84996033 60.13674927 C82.95871153 57.50431869 84.3350954 55.64888072 84.7830658 52.26370239 C84.61874772 50.15064557 84.61874772 50.15064557 83.40415955 49.12698364 C80.75856736 49.01248369 78.13801414 48.96214247 75.49131775 48.95339966 C74.66200241 48.94671265 73.83268707 48.94002563 72.97824097 48.93313599 C71.17049971 48.91904966 69.36274029 48.90716713 67.55497169 48.89718819 C64.69255669 48.88081907 61.83027524 48.85758068 58.96792603 48.83229065 C50.82702771 48.76141854 42.68607319 48.70149323 34.54502869 48.650177 C29.57064078 48.61833806 24.5964031 48.57704303 19.62213707 48.52998161 C17.72639363 48.51398281 15.83061553 48.50165146 13.93482399 48.49307442 C11.27771955 48.48088502 8.6209661 48.45671774 5.963974 48.42996216 C5.18295319 48.42937302 4.40193237 48.42878387 3.59724426 48.42817688 C-0.83150624 48.36925185 -4.51618984 47.88815971 -8.59584045 46.12698364 C-12.01138989 42.1956497 -12.04967652 38.15110681 -12.0294342 33.15823364 C-12.03729698 32.02134094 -12.03729698 32.02134094 -12.0453186 30.86148071 C-12.05172047 29.26461 -12.0504256 27.66769201 -12.04188538 26.0708313 C-12.03336591 23.63426497 -12.06217317 21.20003797 -12.09388733 18.76370239 C-12.09549939 17.20771351 -12.09492172 15.65172049 -12.0919342 14.09573364 C-12.10316818 13.37164307 -12.11440216 12.64755249 -12.12597656 11.90151978 C-12.07669206 8.30689939 -11.68019297 6.26130421 -9.75233459 3.19143677 C-6.63808866 0.21010952 -4.13414886 0.00190029 0 0 Z " fill="#AF77FD" transform="translate(472.59584045410156,74.87301635742188)"/>
<path d="M0 0 C35.94524749 -0.62371625 35.94524749 -0.62371625 51 3 C52.2684375 3.29003906 53.536875 3.58007812 54.84375 3.87890625 C80.81281062 10.29068878 102.54235733 22.67173957 122 41 C122.72574219 41.6496875 123.45148438 42.299375 124.19921875 42.96875 C147.35929337 64.59036365 159.71469301 97.28925289 161.15966797 128.44238281 C161.64361905 143.49105253 161.42207556 158.29113783 158 173 C157.83371094 173.7204248 157.66742188 174.44084961 157.49609375 175.18310547 C152.07974803 197.65592506 139.56308287 218.10109926 124 235 C123.53899902 235.51014648 123.07799805 236.02029297 122.60302734 236.54589844 C108.75482488 251.73797864 90.05279881 263.3989713 71 271 C69.66775391 271.57814453 69.66775391 271.57814453 68.30859375 272.16796875 C49.84835169 279.8302659 22.22876368 287.47690033 2.375 282 C1.59125 281.67 0.8075 281.34 0 281 C0.05859375 278.79296875 0.05859375 278.79296875 1 276 C3.34483571 274.20440509 5.5199619 272.76787164 8.0625 271.3125 C9.5286716 270.43233458 10.99481669 269.55212501 12.4609375 268.671875 C13.97362733 267.78068792 15.48664393 266.89005524 17 266 C27.46658459 259.7828971 37.03596842 253.2656534 46 245 C46.88300781 244.18789062 47.76601562 243.37578125 48.67578125 242.5390625 C73.42876096 218.7484848 89.36533493 183.37570635 90.30078125 149.01953125 C90.32006137 146.61726169 90.32359357 144.21482131 90.3125 141.8125 C90.30758545 140.54164551 90.3026709 139.27079102 90.29760742 137.96142578 C90.1742104 128.00739948 89.2497628 118.680459 87 109 C86.83902832 108.24638184 86.67805664 107.49276367 86.51220703 106.71630859 C81.4912595 83.39615365 70.10777868 64.59404739 54.875 46.5 C54.43309326 45.97301514 53.99118652 45.44603027 53.53588867 44.90307617 C45.43918192 35.59368535 35.83076357 28.5583158 25.5625 21.875 C24.39989926 21.10881799 23.23778803 20.34189268 22.07617188 19.57421875 C17.67333586 16.67292976 13.27310197 13.77784623 8.77294922 11.02832031 C7.78439941 10.42342773 6.79584961 9.81853516 5.77734375 9.1953125 C4.90198975 8.67211426 4.02663574 8.14891602 3.12475586 7.60986328 C0.84508306 5.88262412 -0.10325376 4.70223189 -1 2 C-0.67 1.34 -0.34 0.68 0 0 Z " fill="#AE77FC" transform="translate(57,0)"/>
<path d="M0 0 C13.90380223 7.37359355 23.37785059 29.37997874 30.4375 42.875 C30.78264648 43.52726562 31.12779297 44.17953125 31.48339844 44.8515625 C56.79516588 93.33607479 57.8956359 154.56986836 42.30566406 206.17138672 C35.7965428 226.44191788 21.44721977 264.24600478 2.23022461 275.12451172 C1.63862549 275.37217285 1.04702637 275.61983398 0.4375 275.875 C0.4375 276.535 0.4375 277.195 0.4375 277.875 C-5.77976149 281.34509943 -12.5428074 282.2256244 -19.5625 280.875 C-22.495682 278.83166104 -24.29270936 277.2009632 -25.02342153 273.60966945 C-25.21040005 270.68050209 -25.22849562 267.78895034 -25.19741821 264.85385132 C-25.20911814 263.16615283 -25.20911814 263.16615283 -25.22105443 261.44435942 C-25.24103208 257.66618859 -25.22518609 253.88901853 -25.20947266 250.11083984 C-25.21349505 247.40562353 -25.22496639 244.70045 -25.23602295 241.99525452 C-25.25826179 235.40613077 -25.25345187 228.81729171 -25.23895974 222.22815679 C-25.22767189 216.8745399 -25.22613461 211.52100284 -25.23157883 206.16737747 C-25.23234499 205.40569675 -25.23311116 204.64401603 -25.23390054 203.85925407 C-25.23549914 202.31198391 -25.23712021 200.76471377 -25.2387635 199.21744366 C-25.25302238 184.70779974 -25.23662514 170.19831376 -25.20976166 155.68869574 C-25.18741372 143.23216345 -25.19131021 130.77586405 -25.21435547 118.31933594 C-25.24109559 103.85884376 -25.25165855 89.39848992 -25.23629415 74.93797648 C-25.23470137 73.39698134 -25.23312952 71.85598618 -25.23157883 70.314991 C-25.23080745 69.55675775 -25.23003607 68.7985245 -25.22924132 68.01731449 C-25.2249196 62.66759015 -25.23222079 57.31795341 -25.24397659 51.96824265 C-25.25797994 45.45246498 -25.25424734 38.93698858 -25.22757287 32.42124556 C-25.21440591 29.09506533 -25.21200778 25.76980556 -25.22581863 22.44356346 C-25.23939619 18.84259433 -25.22245062 15.24305815 -25.19741821 11.6421814 C-25.20857182 10.58431974 -25.21972543 9.52645808 -25.23121703 8.43654001 C-25.1956909 5.81862248 -25.12918724 3.4305971 -24.5625 0.875 C-18.32475932 -4.83999194 -7.17459118 -3.33952442 0 0 Z " fill="#AE77FD" transform="translate(24.5625,2.125)"/>
<path d="M0 0 C1.47509766 0.99609375 1.47509766 0.99609375 3 3 C3.29825343 5.76419033 3.42044886 8.29848594 3.3984375 11.0625 C3.40130768 11.85019775 3.40417786 12.63789551 3.40713501 13.44946289 C3.40917522 15.11377685 3.40364832 16.77811481 3.39111328 18.44238281 C3.37505809 20.99077947 3.39096244 23.53759021 3.41015625 26.0859375 C3.40817381 27.7031285 3.40433011 29.32031852 3.3984375 30.9375 C3.40451019 31.70006104 3.41058289 32.46262207 3.4168396 33.24829102 C3.34637834 38.54481694 3.34637834 38.54481694 1.47509766 41.00390625 C0.74492432 41.49697266 0.74492432 41.49697266 0 42 C0 41.34 0 40.68 0 40 C-0.66 40 -1.32 40 -2 40 C-2.33 37.69 -2.66 35.38 -3 33 C-1.35 33 0.3 33 2 33 C2 27.72 2 22.44 2 17 C0.68 17 -0.64 17 -2 17 C-2 11.72 -2 6.44 -2 1 C-1.34 0.67 -0.68 0.34 0 0 Z " fill="#A17ED3" transform="translate(637,239)"/>
<path d="M0 0 C0.66 0 1.32 0 2 0 C4.42130331 3.63195496 4.21022785 5.38349348 4.125 9.6875 C4.10695313 10.86699219 4.08890625 12.04648438 4.0703125 13.26171875 C4.03550781 14.61716797 4.03550781 14.61716797 4 16 C2.68 16 1.36 16 0 16 C0 10.72 0 5.44 0 0 Z " fill="#AB81E4" transform="translate(635,240)"/>
<path d="M0 0 C0.99 0.33 1.98 0.66 3 1 C0.36 4.63 -2.28 8.26 -5 12 C-6.32342458 8.02972626 -5.36639254 5.88343142 -4 2 C-3.34 1.67 -2.68 1.34 -2 1 C-1.34 1.33 -0.68 1.66 0 2 C0 1.34 0 0.68 0 0 Z " fill="#A777F1" transform="translate(541,216)"/>
<path d="M0 0 C1.51553092 3.97450493 0.49888623 7.20481149 -0.4375 11.25 C-0.72496094 12.51328125 -1.01242188 13.7765625 -1.30859375 15.078125 C-1.53675781 16.04234375 -1.76492187 17.0065625 -2 18 C-2.33 18 -2.66 18 -3 18 C-3.55353075 5.33029613 -3.55353075 5.33029613 0 0 Z " fill="#A87DE9" transform="translate(72,179)"/>
<path d="M0 0 C1.41702513 0.14230808 2.8336096 0.28900746 4.25 0.4375 C5.43335938 0.55931641 5.43335938 0.55931641 6.640625 0.68359375 C8.82364639 0.97634993 10.8773182 1.42064419 13 2 C12.67 2.66 12.34 3.32 12 4 C8 4 4 4 0 4 C0 2.68 0 1.36 0 0 Z " fill="#A178E6" transform="translate(364,72)"/>
<path d="M0 0 C0.33 0.99 0.66 1.98 1 3 C-2.63 6.3 -6.26 9.6 -10 13 C-10.66 12.67 -11.32 12.34 -12 12 C-8.04 8.04 -4.08 4.08 0 0 Z " fill="#A47FEC" transform="translate(519,174)"/>
<path d="M0 0 C1.00289062 0.10183594 2.00578125 0.20367187 3.0390625 0.30859375 C3.80992188 0.39238281 4.58078125 0.47617187 5.375 0.5625 C2.25589144 2.35525866 -0.30182428 2.90540718 -3.875 3.1875 C-4.76703125 3.26226562 -5.6590625 3.33703125 -6.578125 3.4140625 C-7.25359375 3.46304687 -7.9290625 3.51203125 -8.625 3.5625 C-8.295 2.5725 -7.965 1.5825 -7.625 0.5625 C-4.89657939 -0.80171031 -3.01546682 -0.31557211 0 0 Z " fill="#A97CE7" transform="translate(102.625,276.4375)"/>
<path d="M0 0 C0.99 0.66 1.98 1.32 3 2 C4.88154883 2.44111565 6.78062638 2.8109267 8.6875 3.125 C9.68136719 3.29257812 10.67523438 3.46015625 11.69921875 3.6328125 C12.45847656 3.75398438 13.21773438 3.87515625 14 4 C14 4.66 14 5.32 14 6 C1.33029613 4.07289294 1.33029613 4.07289294 -4 2 C-2.68 1.34 -1.36 0.68 0 0 Z " fill="#A87EE8" transform="translate(310,277)"/>
<path d="M0 0 C3.96 0.33 7.92 0.66 12 1 C12 1.66 12 2.32 12 3 C10.35 3.66 8.7 4.32 7 5 C7 4.34 7 3.68 7 3 C5.02 3 3.04 3 1 3 C0.67 2.01 0.34 1.02 0 0 Z " fill="#A47ADA" transform="translate(337,239)"/>
<path d="M0 0 C0.33 0.66 0.66 1.32 1 2 C0.34 2 -0.32 2 -1 2 C-1 2.66 -1 3.32 -1 4 C-6.28089024 4.30466674 -7.577168 4.317124 -12 1 C-6.06 0.505 -6.06 0.505 0 0 Z " fill="#A07DD2" transform="translate(362,239)"/>
<path d="M0 0 C1.81248985 3.6249797 2.31888915 5.37259584 2.625 9.25 C2.69976562 10.14203125 2.77453125 11.0340625 2.8515625 11.953125 C2.92503906 12.96632813 2.92503906 12.96632813 3 14 C2.01 14 1.02 14 0 14 C0 9.38 0 4.76 0 0 Z " fill="#A97FE4" transform="translate(213,100)"/>
<path d="M0 0 C1.65 0 3.3 0 5 0 C5 1.65 5 3.3 5 5 C4.34 5 3.68 5 3 5 C3 5.66 3 6.32 3 7 C2.34 7 1.68 7 1 7 C0.67 4.69 0.34 2.38 0 0 Z " fill="#AB7FE6" transform="translate(634,272)"/>
<path d="M0 0 C0.66 0 1.32 0 2 0 C2 1.65 2 3.3 2 5 C1.01 5.495 1.01 5.495 0 6 C-0.165 7.155 -0.33 8.31 -0.5 9.5 C-0.665 10.655 -0.83 11.81 -1 13 C-1.99 13.495 -1.99 13.495 -3 14 C-2.58846263 9.02906176 -2.20399168 4.55491614 0 0 Z " fill="#AA7DE5" transform="translate(249,139)"/>
<path d="M0 0 C2.2477975 2.05233685 3.0022242 3.00667261 4 6 C3.87890625 8.26171875 3.87890625 8.26171875 3.5625 10.6875 C3.46066406 11.49574219 3.35882813 12.30398437 3.25390625 13.13671875 C3.17011719 13.75160156 3.08632812 14.36648437 3 15 C2.67 15 2.34 15 2 15 C1.66048381 13.43883181 1.32867456 11.87598662 1 10.3125 C0.814375 9.44238281 0.62875 8.57226562 0.4375 7.67578125 C0.01027953 5.06287036 -0.07616201 2.64186962 0 0 Z " fill="#A880E3" transform="translate(144,104)"/>
<path d="M0 0 C-0.66 1.32 -1.32 2.64 -2 4 C-5.3 3.67 -8.6 3.34 -12 3 C-7.86112344 0.24074896 -4.92824278 -0.13689563 0 0 Z " fill="#A87BE8" transform="translate(329,72)"/>
<path d="M0 0 C-0.33 0.99 -0.66 1.98 -1 3 C-2.32 2.67 -3.64 2.34 -5 2 C-2 0 -2 0 0 0 Z M-7 3 C-6.34 3.33 -5.68 3.66 -5 4 C-6.75 6.0625 -6.75 6.0625 -9 8 C-11.25 7.75 -11.25 7.75 -13 7 C-11.02 5.68 -9.04 4.36 -7 3 Z " fill="#A67CEB" transform="translate(74,267)"/>
<path d="M0 0 C1.67110042 2.96178773 2.32682752 5.37071192 2.625 8.75 C2.69976562 9.54921875 2.77453125 10.3484375 2.8515625 11.171875 C2.90054688 11.77515625 2.94953125 12.3784375 3 13 C2.01 12.34 1.02 11.68 0 11 C-0.29296875 8.3984375 -0.29296875 8.3984375 -0.1875 5.375 C-0.16042969 4.37210937 -0.13335937 3.36921875 -0.10546875 2.3359375 C-0.07066406 1.56507812 -0.03585938 0.79421875 0 0 Z " fill="#AA7FE3" transform="translate(69,85)"/>
<path d="M0 0 C3.12910468 1.25164187 4.92874253 3.42801274 7.1875 5.875 C5.72682801 5.42417531 4.26901968 4.96406463 2.8125 4.5 C2.00039063 4.24476563 1.18828125 3.98953125 0.3515625 3.7265625 C-1.8125 2.875 -1.8125 2.875 -3.8125 0.875 C-1.8125 -0.125 -1.8125 -0.125 0 0 Z " fill="#A77FE0" transform="translate(708.8125,364.125)"/>
<path d="M0 0 C0.66 0.33 1.32 0.66 2 1 C2 1.99 2 2.98 2 4 C-0.85131007 5.98007644 -3.8988485 7.45605064 -7 9 C-6.02180976 7.68677212 -5.0424189 6.37443848 -4.0625 5.0625 C-3.51722656 4.33160156 -2.97195313 3.60070312 -2.41015625 2.84765625 C-1 1 -1 1 0 0 Z " fill="#A87CEE" transform="translate(482,214)"/>
<path d="M0 0 C0.33 0 0.66 0 1 0 C1.27632268 1.43267304 1.52019671 2.87163335 1.75 4.3125 C1.88921875 5.11300781 2.0284375 5.91351563 2.171875 6.73828125 C2.11515625 7.48464844 2.0584375 8.23101562 2 9 C0.68 9.99 -0.64 10.98 -2 12 C-1.34 8.04 -0.68 4.08 0 0 Z " fill="#A77FE8" transform="translate(810,189)"/>
<path d="M0 0 C0.33 0.99 0.66 1.98 1 3 C-2 5 -2 5 -4.6875 4.625 C-5.450625 4.41875 -6.21375 4.2125 -7 4 C-7 3.34 -7 2.68 -7 2 C-4.69 2 -2.38 2 0 2 C0 1.34 0 0.68 0 0 Z " fill="#AB7DEA" transform="translate(361,241)"/>
<path d="M0 0 C1 2 1 2 0.0625 5.125 C-0.288125 6.07375 -0.63875 7.0225 -1 8 C-1.33 6.68 -1.66 5.36 -2 4 C-2.99 4 -3.98 4 -5 4 C-5 3.34 -5 2.68 -5 2 C-3.35 1.34 -1.7 0.68 0 0 Z " fill="#AB7DE7" transform="translate(63,214)"/>
<path d="M0 0 C1.65 0 3.3 0 5 0 C4.01 1.98 3.02 3.96 2 6 C1.34 5.67 0.68 5.34 0 5 C0 3.35 0 1.7 0 0 Z " fill="#A87CE6" transform="translate(299,132)"/>
<path d="M0 0 C0.66 0.33 1.32 0.66 2 1 C2 1.99 2 2.98 2 4 C0.02 4.99 -1.96 5.98 -4 7 C-2.92598892 4.08482708 -2.22189824 2.22189824 0 0 Z " fill="#9473ED" transform="translate(465,76)"/>
<path d="M0 0 C2.475 0.99 2.475 0.99 5 2 C2.36095629 3.41377341 -0.07120629 4.37240135 -3 5 C-2.01 3.35 -1.02 1.7 0 0 Z " fill="#AC80EA" transform="translate(349,240)"/>
<path d="" fill="#2D095A" transform="translate(0,0)"/>
<path d="" fill="#2002AB" transform="translate(0,0)"/>
<path d="" fill="#1705C8" transform="translate(0,0)"/>
<path d="" fill="#1C00CC" transform="translate(0,0)"/>
<path d="" fill="#8C4DEF" transform="translate(0,0)"/>
<path d="" fill="#0F07B4" transform="translate(0,0)"/>
<path d="" fill="#41009E" transform="translate(0,0)"/>
<path d="" fill="#0D0CC7" transform="translate(0,0)"/>
<path d="" fill="#0D0EBF" transform="translate(0,0)"/>
<path d="" fill="#0C0CB5" transform="translate(0,0)"/>
<path d="" fill="#1613B6" transform="translate(0,0)"/>
<path d="" fill="#16006B" transform="translate(0,0)"/>
<path d="" fill="#17005C" transform="translate(0,0)"/>
<path d="" fill="#120CAE" transform="translate(0,0)"/>
<path d="" fill="#AF20D2" transform="translate(0,0)"/>
<path d="" fill="#2505B8" transform="translate(0,0)"/>
<path d="" fill="#330B66" transform="translate(0,0)"/>
<path d="" fill="#1C1154" transform="translate(0,0)"/>
<path d="" fill="#1902A9" transform="translate(0,0)"/>
<path d="" fill="#2406C1" transform="translate(0,0)"/>
<path d="" fill="#BC32C5" transform="translate(0,0)"/>
<path d="" fill="#0E00AF" transform="translate(0,0)"/>
<path d="" fill="#190AC5" transform="translate(0,0)"/>
<path d="" fill="#210BD6" transform="translate(0,0)"/>
<path d="" fill="#1D0AD0" transform="translate(0,0)"/>
<path d="" fill="#3602B6" transform="translate(0,0)"/>
<path d="" fill="#8952F2" transform="translate(0,0)"/>
<path d="" fill="#1E0FB4" transform="translate(0,0)"/>
<path d="" fill="#130AA3" transform="translate(0,0)"/>
<path d="" fill="#261158" transform="translate(0,0)"/>
<path d="" fill="#1401C7" transform="translate(0,0)"/>
<path d="" fill="#3F0099" transform="translate(0,0)"/>
<path d="" fill="#C128E2" transform="translate(0,0)"/>
<path d="" fill="#2C1244" transform="translate(0,0)"/>
<path d="" fill="#4400A0" transform="translate(0,0)"/>
<path d="" fill="#2A00C3" transform="translate(0,0)"/>
<path d="" fill="#9645C0" transform="translate(0,0)"/>
<path d="" fill="#2C0D5E" transform="translate(0,0)"/>
<path d="" fill="#C723E7" transform="translate(0,0)"/>
<path d="" fill="#A529D9" transform="translate(0,0)"/>
<path d="" fill="#1E0AB9" transform="translate(0,0)"/>
<path d="" fill="#CD22F5" transform="translate(0,0)"/>
<path d="" fill="#4B00AA" transform="translate(0,0)"/>
<path d="" fill="#2B128E" transform="translate(0,0)"/>
<path d="" fill="#2500C6" transform="translate(0,0)"/>
<path d="" fill="#0C0CB5" transform="translate(0,0)"/>
<path d="" fill="#1D07AC" transform="translate(0,0)"/>
<path d="" fill="#1A00B0" transform="translate(0,0)"/>
<path d="" fill="#7859A6" transform="translate(0,0)"/>
<path d="" fill="#2C0FAF" transform="translate(0,0)"/>
<path d="" fill="#C734CA" transform="translate(0,0)"/>
<path d="" fill="#72529D" transform="translate(0,0)"/>
<path d="" fill="#2303AB" transform="translate(0,0)"/>
<path d="" fill="#2A1162" transform="translate(0,0)"/>
<path d="" fill="#2600A9" transform="translate(0,0)"/>
<path d="" fill="#2704C3" transform="translate(0,0)"/>
<path d="" fill="#1C02BF" transform="translate(0,0)"/>
<path d="" fill="#2B1189" transform="translate(0,0)"/>
<path d="" fill="#180AB5" transform="translate(0,0)"/>
<path d="" fill="#1F06BB" transform="translate(0,0)"/>
<path d="" fill="#C62BD3" transform="translate(0,0)"/>
<path d="" fill="#1F00C5" transform="translate(0,0)"/>
<path d="" fill="#3E009F" transform="translate(0,0)"/>
<path d="" fill="#D63BFF" transform="translate(0,0)"/>
<path d="" fill="#05029E" transform="translate(0,0)"/>
<path d="" fill="#1F06CC" transform="translate(0,0)"/>
<path d="" fill="#1806AD" transform="translate(0,0)"/>
<path d="" fill="#1A00A4" transform="translate(0,0)"/>
<path d="" fill="#270582" transform="translate(0,0)"/>
<path d="" fill="#1C00C9" transform="translate(0,0)"/>
<path d="" fill="#1B00A9" transform="translate(0,0)"/>
<path d="" fill="#0D02D1" transform="translate(0,0)"/>
<path d="" fill="#0C00AA" transform="translate(0,0)"/>
<path d="" fill="#1900D0" transform="translate(0,0)"/>
<path d="" fill="#180079" transform="translate(0,0)"/>
<path d="" fill="#2506C5" transform="translate(0,0)"/>
<path d="" fill="#1408B7" transform="translate(0,0)"/>
<path d="" fill="#291257" transform="translate(0,0)"/>
<path d="" fill="#1411AF" transform="translate(0,0)"/>
<path d="" fill="#2000BA" transform="translate(0,0)"/>
<path d="" fill="#3000C7" transform="translate(0,0)"/>
<path d="" fill="#882CD6" transform="translate(0,0)"/>
<path d="" fill="#C826CF" transform="translate(0,0)"/>
<path d="" fill="#47066C" transform="translate(0,0)"/>
<path d="" fill="#7C38FF" transform="translate(0,0)"/>
<path d="" fill="#3900C4" transform="translate(0,0)"/>
</svg>
