<?xml version="1.0" standalone="no"?>
<!DOCTYPE svg PUBLIC "-//W3C//DTD SVG 20010904//EN"
 "http://www.w3.org/TR/2001/REC-SVG-20010904/DTD/svg10.dtd">
<svg version="1.0" xmlns="http://www.w3.org/2000/svg"
 width="1563.000000pt" height="1563.000000pt" viewBox="0 0 1563.000000 1563.000000"
 preserveAspectRatio="xMidYMid meet">

<g transform="translate(0.000000,1563.000000) scale(0.100000,-0.100000)"
fill="#000000" stroke="none">
<path d="M7745 11044 c-147 -38 -187 -66 -407 -283 l-188 -185 0 -722 0 -722
463 -4 462 -4 147 -32 c300 -66 547 -176 782 -350 430 -319 716 -799 792
-1328 20 -146 20 -408 -1 -549 -39 -261 -120 -494 -249 -719 -32 -54 -56 -100
-54 -102 2 -2 342 335 754 749 689 690 753 757 777 812 61 141 57 287 -12 417
-33 62 -170 203 -1434 1473 -770 773 -1428 1426 -1463 1452 -86 64 -169 94
-269 99 -44 1 -89 1 -100 -2z"/>
<path d="M5238 8663 c-527 -530 -578 -583 -606 -643 -70 -151 -67 -314 8 -444
19 -34 221 -243 610 -631 l580 -580 0 1438 c0 790 -4 1437 -8 1437 -4 0 -267
-260 -584 -577z"/>
<path d="M7150 7140 l0 -671 403 3 402 4 82 30 c107 40 181 86 253 157 127
125 189 263 197 438 16 316 -160 571 -467 680 -63 22 -78 23 -467 27 l-403 3
0 -671z"/>
<path d="M8860 5442 c-178 -117 -486 -231 -740 -273 -48 -8 -253 -14 -572 -18
l-498 -6 243 -246 c222 -226 248 -249 317 -283 142 -69 286 -70 425 -1 64 31
106 71 485 450 228 228 410 415 405 414 -6 0 -35 -17 -65 -37z"/>
</g>
</svg>
