<svg id="svg" version="1.1" xmlns="http://www.w3.org/2000/svg" xmlns:xlink="http://www.w3.org/1999/xlink" width="400" height="400" viewBox="0, 0, 400,400"><g id="svgg"><path id="path0" d="M59.697 295.495 L 59.800 317.000 75.600 317.000 L 91.400 317.000 91.400 311.800 L 91.400 306.600 80.800 306.494 L 70.200 306.388 70.242 303.549 L 70.284 300.710 78.692 300.775 C 83.316 300.811,87.572 300.722,88.150 300.577 L 89.200 300.313 89.200 295.557 L 89.200 290.800 79.700 290.800 L 70.200 290.800 70.200 287.600 L 70.200 284.400 80.912 284.400 L 91.624 284.400 91.512 279.300 L 91.400 274.200 75.497 274.095 L 59.593 273.991 59.697 295.495 M97.680 274.480 C 96.988 275.172,96.988 316.028,97.680 316.720 C 97.998 317.038,99.724 317.200,102.800 317.200 C 108.918 317.200,108.400 318.316,108.400 305.120 C 108.400 297.973,108.543 294.000,108.800 294.000 C 109.020 294.000,109.200 294.320,109.200 294.712 C 109.200 295.103,109.560 295.683,110.000 296.000 C 110.440 296.317,110.800 296.857,110.800 297.200 C 110.800 297.543,111.160 298.083,111.600 298.400 C 112.040 298.717,112.400 299.214,112.400 299.505 C 112.400 299.796,112.760 300.420,113.200 300.892 C 113.640 301.364,114.000 301.987,114.000 302.275 C 114.000 302.564,114.180 302.800,114.400 302.800 C 114.620 302.800,114.800 303.036,114.800 303.325 C 114.800 303.613,115.160 304.236,115.600 304.708 C 116.040 305.180,116.400 305.726,116.400 305.921 C 116.400 307.421,119.914 308.216,120.284 306.800 C 120.399 306.360,120.652 306.000,120.847 306.000 C 121.041 306.000,121.200 305.640,121.200 305.200 C 121.200 304.760,121.350 304.400,121.532 304.400 C 121.715 304.400,122.120 303.905,122.432 303.300 C 122.745 302.695,123.315 301.851,123.700 301.425 C 124.085 300.998,124.400 300.413,124.400 300.125 C 124.400 299.836,124.580 299.600,124.800 299.600 C 125.020 299.600,125.200 299.280,125.200 298.888 C 125.200 298.497,125.560 297.917,126.000 297.600 C 126.440 297.283,126.800 296.780,126.800 296.483 C 126.800 295.946,127.734 294.800,128.171 294.800 C 128.297 294.800,128.400 299.638,128.400 305.551 C 128.400 318.378,127.816 317.264,134.456 317.113 L 139.400 317.000 139.400 295.600 L 139.400 274.200 134.400 274.086 C 129.315 273.971,127.600 274.324,127.600 275.484 C 127.600 275.786,127.240 276.420,126.800 276.892 C 126.360 277.364,126.000 277.987,126.000 278.275 C 126.000 278.564,125.820 278.800,125.600 278.800 C 125.380 278.800,125.200 279.078,125.200 279.417 C 125.200 279.756,124.840 280.420,124.400 280.892 C 123.960 281.364,123.600 281.987,123.600 282.275 C 123.600 282.564,123.420 282.800,123.200 282.800 C 122.980 282.800,122.800 283.078,122.800 283.417 C 122.800 283.756,122.440 284.420,122.000 284.892 C 121.560 285.364,121.200 285.987,121.200 286.275 C 121.200 286.564,121.020 286.800,120.800 286.800 C 120.580 286.800,120.400 287.078,120.400 287.418 C 120.400 287.994,118.705 290.000,118.218 290.000 C 118.098 290.000,118.000 289.680,118.000 289.288 C 118.000 288.897,117.640 288.317,117.200 288.000 C 116.760 287.683,116.400 287.103,116.400 286.712 C 116.400 286.320,116.220 286.000,116.000 286.000 C 115.780 286.000,115.600 285.640,115.600 285.200 C 115.600 284.760,115.420 284.400,115.200 284.400 C 114.980 284.400,114.800 284.164,114.800 283.875 C 114.800 283.587,114.485 282.994,114.100 282.558 C 113.212 281.553,112.017 279.609,111.729 278.700 C 111.607 278.315,111.348 278.000,111.153 278.000 C 110.959 278.000,110.800 277.816,110.800 277.591 C 110.800 277.367,110.326 276.467,109.747 275.591 L 108.694 274.000 103.427 274.000 C 99.864 274.000,98.005 274.155,97.680 274.480 M147.298 274.462 C 146.590 275.170,146.572 316.012,147.280 316.720 C 148.230 317.670,171.661 317.375,172.708 316.400 C 173.180 315.960,174.103 315.600,174.760 315.600 C 175.416 315.600,176.064 315.420,176.200 315.200 C 176.336 314.980,176.757 314.800,177.135 314.800 C 177.514 314.800,178.083 314.440,178.400 314.000 C 178.717 313.560,179.220 313.200,179.517 313.200 C 180.181 313.200,180.823 312.543,181.568 311.100 C 181.880 310.495,182.285 310.000,182.468 310.000 C 182.650 310.000,182.800 309.471,182.800 308.824 C 182.800 308.177,182.980 307.536,183.200 307.400 C 183.420 307.264,183.600 306.004,183.600 304.600 C 183.600 303.196,183.420 301.936,183.200 301.800 C 182.980 301.664,182.800 301.113,182.800 300.576 C 182.800 300.039,182.620 299.600,182.400 299.600 C 182.180 299.600,182.000 299.324,182.000 298.987 C 182.000 298.285,179.451 295.600,178.785 295.600 C 177.165 295.600,177.158 294.377,178.769 292.829 C 179.850 291.791,180.400 290.915,180.400 290.231 C 180.400 289.664,180.580 289.200,180.800 289.200 C 181.033 289.200,181.200 287.867,181.200 286.000 C 181.200 284.133,181.033 282.800,180.800 282.800 C 180.580 282.800,180.400 282.374,180.400 281.854 C 180.400 280.757,176.433 276.400,175.435 276.400 C 175.086 276.400,174.800 276.220,174.800 276.000 C 174.800 275.780,174.440 275.600,174.000 275.600 C 173.560 275.600,173.200 275.437,173.200 275.239 C 173.200 274.276,148.232 273.528,147.298 274.462 M201.921 274.900 C 201.607 275.395,201.118 276.430,200.834 277.200 C 200.132 279.108,199.575 280.466,199.153 281.295 C 198.959 281.677,198.800 282.352,198.800 282.795 C 198.800 283.238,198.620 283.600,198.400 283.600 C 198.180 283.600,198.000 283.949,198.000 284.376 C 198.000 284.803,197.820 285.264,197.600 285.400 C 197.380 285.536,197.200 286.087,197.200 286.624 C 197.200 287.161,197.020 287.600,196.800 287.600 C 196.580 287.600,196.400 287.960,196.400 288.400 C 196.400 288.840,196.220 289.200,196.000 289.200 C 195.780 289.200,195.600 289.740,195.600 290.400 C 195.600 291.060,195.420 291.600,195.200 291.600 C 194.980 291.600,194.800 291.960,194.800 292.400 C 194.800 292.840,194.620 293.200,194.400 293.200 C 194.180 293.200,194.000 293.560,194.000 294.000 C 194.000 294.440,193.820 294.800,193.600 294.800 C 193.380 294.800,193.200 295.340,193.200 296.000 C 193.200 296.660,193.020 297.200,192.800 297.200 C 192.580 297.200,192.400 297.560,192.400 298.000 C 192.400 298.440,192.220 298.800,192.000 298.800 C 191.780 298.800,191.600 299.149,191.600 299.576 C 191.600 300.003,191.420 300.464,191.200 300.600 C 190.980 300.736,190.800 301.287,190.800 301.824 C 190.800 302.361,190.620 302.800,190.400 302.800 C 190.180 302.800,190.000 303.160,190.000 303.600 C 190.000 304.040,189.820 304.400,189.600 304.400 C 189.380 304.400,189.200 304.760,189.200 305.200 C 189.200 305.640,189.020 306.000,188.800 306.000 C 188.580 306.000,188.400 306.439,188.400 306.976 C 188.400 307.513,188.220 308.064,188.000 308.200 C 187.780 308.336,187.600 308.797,187.600 309.224 C 187.600 309.651,187.420 310.000,187.200 310.000 C 186.980 310.000,186.800 310.360,186.800 310.800 C 186.800 311.240,186.620 311.600,186.400 311.600 C 186.180 311.600,186.000 311.924,186.000 312.320 C 186.000 312.716,185.808 313.232,185.573 313.467 C 185.338 313.702,185.203 314.593,185.273 315.447 L 185.400 317.000 190.343 317.113 L 195.285 317.225 196.242 316.113 C 196.768 315.501,197.199 314.595,197.200 314.100 C 197.200 313.605,197.380 313.200,197.600 313.200 C 197.820 313.200,198.000 312.851,198.000 312.424 C 198.000 311.997,198.180 311.536,198.400 311.400 C 198.620 311.264,198.800 310.749,198.800 310.256 C 198.800 308.523,199.350 308.400,207.109 308.400 C 214.750 308.400,215.600 308.577,215.600 310.171 C 215.600 310.517,215.780 310.800,216.000 310.800 C 216.220 310.800,216.400 311.340,216.400 312.000 C 216.400 312.660,216.580 313.200,216.800 313.200 C 217.020 313.200,217.200 313.560,217.200 314.000 C 217.200 314.440,217.368 314.800,217.573 314.800 C 217.779 314.800,218.004 315.295,218.073 315.900 L 218.200 317.000 223.428 317.111 C 230.671 317.265,230.997 316.834,227.967 311.105 C 227.765 310.723,227.600 310.138,227.600 309.805 C 227.600 309.472,227.420 309.200,227.200 309.200 C 226.980 309.200,226.800 308.840,226.800 308.400 C 226.800 307.960,226.620 307.600,226.400 307.600 C 226.180 307.600,226.000 307.240,226.000 306.800 C 226.000 306.360,225.820 306.000,225.600 306.000 C 225.380 306.000,225.200 305.460,225.200 304.800 C 225.200 304.140,225.065 303.599,224.900 303.597 C 224.541 303.593,223.600 301.656,223.600 300.920 C 223.600 300.634,223.420 300.400,223.200 300.400 C 222.980 300.400,222.800 299.961,222.800 299.424 C 222.800 298.887,222.620 298.336,222.400 298.200 C 222.180 298.064,222.000 297.603,222.000 297.176 C 222.000 296.749,221.820 296.400,221.600 296.400 C 221.380 296.400,221.200 296.040,221.200 295.600 C 221.200 295.160,221.020 294.800,220.800 294.800 C 220.580 294.800,220.400 294.361,220.400 293.824 C 220.400 293.287,220.220 292.736,220.000 292.600 C 219.780 292.464,219.600 292.003,219.600 291.576 C 219.600 291.149,219.420 290.800,219.200 290.800 C 218.980 290.800,218.800 290.440,218.800 290.000 C 218.800 289.560,218.620 289.200,218.400 289.200 C 218.180 289.200,218.000 288.845,218.000 288.412 C 218.000 287.979,217.640 286.983,217.200 286.200 C 216.760 285.417,216.400 284.511,216.400 284.188 C 216.400 283.865,216.220 283.600,216.000 283.600 C 215.780 283.600,215.600 283.060,215.600 282.400 C 215.600 281.740,215.420 281.200,215.200 281.200 C 214.980 281.200,214.800 280.840,214.800 280.400 C 214.800 279.960,214.620 279.600,214.400 279.600 C 214.180 279.600,214.000 279.161,214.000 278.624 C 214.000 278.087,213.820 277.536,213.600 277.400 C 213.380 277.264,213.200 276.803,213.200 276.376 C 213.200 275.949,213.041 275.600,212.847 275.600 C 212.652 275.600,212.399 275.240,212.284 274.800 C 211.943 273.495,202.756 273.583,201.921 274.900 M241.200 274.398 C 240.870 274.591,240.015 274.984,239.300 275.272 C 238.585 275.560,238.000 275.931,238.000 276.098 C 238.000 276.264,237.724 276.400,237.387 276.400 C 236.591 276.400,234.000 278.991,234.000 279.787 C 234.000 280.124,233.820 280.400,233.600 280.400 C 233.380 280.400,233.200 280.760,233.200 281.200 C 233.200 281.640,233.020 282.000,232.800 282.000 C 232.580 282.000,232.400 282.720,232.400 283.600 C 232.400 284.480,232.220 285.200,232.000 285.200 C 231.780 285.200,231.600 286.100,231.600 287.200 C 231.600 288.300,231.780 289.200,232.000 289.200 C 232.220 289.200,232.400 289.794,232.400 290.520 C 232.400 291.899,233.183 293.991,233.700 293.997 C 233.865 293.999,234.000 294.294,234.000 294.653 C 234.000 295.384,235.925 297.199,236.700 297.200 C 236.975 297.200,237.200 297.380,237.200 297.600 C 237.200 297.820,237.560 298.000,238.000 298.000 C 238.440 298.000,238.800 298.180,238.800 298.400 C 238.800 298.620,239.160 298.800,239.600 298.800 C 240.040 298.800,240.400 298.980,240.400 299.200 C 240.400 299.420,240.940 299.600,241.600 299.600 C 242.260 299.600,242.800 299.780,242.800 300.000 C 242.800 300.220,243.419 300.400,244.176 300.400 C 244.933 300.400,245.664 300.580,245.800 300.800 C 245.936 301.020,246.577 301.200,247.224 301.200 C 247.871 301.200,248.400 301.380,248.400 301.600 C 248.400 301.820,248.940 302.000,249.600 302.000 C 250.260 302.000,250.800 302.180,250.800 302.400 C 250.800 302.620,251.130 302.800,251.532 302.800 C 252.968 302.800,253.432 304.585,252.311 305.794 C 250.789 307.435,242.347 306.956,240.753 305.138 C 240.397 304.732,239.852 304.400,239.541 304.400 C 239.231 304.400,238.717 304.040,238.400 303.600 C 237.655 302.566,235.293 302.492,234.910 303.491 C 234.764 303.871,234.069 304.758,233.365 305.461 C 229.670 309.157,229.335 310.712,231.944 312.056 C 232.525 312.355,233.349 312.915,233.775 313.300 C 234.202 313.685,234.866 314.000,235.252 314.000 C 235.637 314.000,236.064 314.180,236.200 314.400 C 236.336 314.620,236.797 314.800,237.224 314.800 C 237.651 314.800,238.000 314.980,238.000 315.200 C 238.000 315.420,238.444 315.600,238.986 315.600 C 239.562 315.600,240.150 315.932,240.400 316.400 C 240.803 317.153,241.238 317.200,247.811 317.200 C 254.360 317.200,254.824 317.150,255.293 316.400 C 255.568 315.960,256.109 315.600,256.496 315.600 C 256.883 315.600,257.200 315.420,257.200 315.200 C 257.200 314.980,257.474 314.800,257.809 314.800 C 258.143 314.800,259.403 313.814,260.609 312.609 C 261.814 311.403,262.800 310.143,262.800 309.809 C 262.800 309.474,262.980 309.200,263.200 309.200 C 263.420 309.200,263.600 308.311,263.600 307.224 C 263.600 306.137,263.780 305.136,264.000 305.000 C 264.462 304.715,264.549 302.800,264.100 302.800 C 263.935 302.800,263.746 301.945,263.679 300.900 C 263.613 299.855,263.388 298.940,263.179 298.867 C 262.971 298.793,262.800 298.474,262.800 298.156 C 262.800 297.492,259.434 294.000,258.794 294.000 C 258.559 294.000,257.980 293.640,257.508 293.200 C 257.036 292.760,256.233 292.400,255.725 292.400 C 255.216 292.400,254.800 292.220,254.800 292.000 C 254.800 291.780,254.260 291.600,253.600 291.600 C 252.940 291.600,252.400 291.420,252.400 291.200 C 252.400 290.980,251.871 290.800,251.224 290.800 C 250.577 290.800,249.936 290.620,249.800 290.400 C 249.664 290.180,248.933 290.000,248.176 290.000 C 247.419 290.000,246.800 289.820,246.800 289.600 C 246.800 289.380,246.395 289.200,245.900 289.200 C 244.683 289.199,242.800 287.513,242.800 286.425 C 242.800 285.407,243.669 284.400,244.548 284.400 C 244.881 284.400,245.264 284.220,245.400 284.000 C 245.536 283.780,246.087 283.600,246.624 283.600 C 247.161 283.600,247.600 283.780,247.600 284.000 C 247.600 284.220,248.320 284.400,249.200 284.400 C 250.080 284.400,250.800 284.580,250.800 284.800 C 250.800 285.020,251.300 285.200,251.912 285.200 C 252.565 285.200,253.261 285.530,253.600 286.000 C 253.917 286.440,254.497 286.800,254.888 286.800 C 255.280 286.800,255.600 286.980,255.600 287.200 C 255.600 287.935,258.402 287.663,258.685 286.900 C 258.828 286.515,259.272 285.909,259.672 285.553 C 260.073 285.197,260.400 284.652,260.400 284.341 C 260.400 284.031,260.760 283.517,261.200 283.200 C 261.640 282.883,262.000 282.303,262.000 281.912 C 262.000 281.520,262.180 281.200,262.400 281.200 C 263.437 281.200,262.783 278.860,261.600 278.336 C 260.940 278.044,260.400 277.669,260.400 277.502 C 260.400 277.336,260.040 277.200,259.600 277.200 C 259.160 277.200,258.800 277.020,258.800 276.800 C 258.800 276.580,258.440 276.400,258.000 276.400 C 257.560 276.400,257.200 276.220,257.200 276.000 C 257.200 275.780,256.840 275.600,256.400 275.600 C 255.960 275.600,255.600 275.420,255.600 275.200 C 255.600 274.980,255.071 274.800,254.424 274.800 C 253.777 274.800,253.136 274.620,253.000 274.400 C 252.694 273.904,242.048 273.902,241.200 274.398 M277.200 274.398 C 276.870 274.591,276.015 274.984,275.300 275.272 C 274.585 275.560,274.000 275.931,274.000 276.098 C 274.000 276.264,273.724 276.400,273.387 276.400 C 272.591 276.400,270.000 278.991,270.000 279.787 C 270.000 280.124,269.820 280.400,269.600 280.400 C 269.380 280.400,269.200 280.760,269.200 281.200 C 269.200 281.640,269.020 282.000,268.800 282.000 C 268.580 282.000,268.400 282.540,268.400 283.200 C 268.400 283.860,268.220 284.400,268.000 284.400 C 267.771 284.400,267.600 285.600,267.600 287.200 C 267.600 288.800,267.771 290.000,268.000 290.000 C 268.220 290.000,268.400 290.680,268.400 291.512 C 268.400 292.565,268.643 293.198,269.200 293.600 C 269.640 293.917,270.000 294.431,270.000 294.742 C 270.000 295.404,271.972 297.199,272.700 297.200 C 272.975 297.200,273.200 297.380,273.200 297.600 C 273.200 297.820,273.560 298.000,274.000 298.000 C 274.440 298.000,274.800 298.180,274.800 298.400 C 274.800 298.620,275.160 298.800,275.600 298.800 C 276.040 298.800,276.400 298.980,276.400 299.200 C 276.400 299.420,276.940 299.600,277.600 299.600 C 278.260 299.600,278.800 299.780,278.800 300.000 C 278.800 300.220,279.520 300.400,280.400 300.400 C 281.280 300.400,282.000 300.580,282.000 300.800 C 282.000 301.020,282.540 301.200,283.200 301.200 C 283.860 301.200,284.400 301.380,284.400 301.600 C 284.400 301.820,284.940 302.000,285.600 302.000 C 286.260 302.000,286.800 302.180,286.800 302.400 C 286.800 302.620,287.160 302.800,287.600 302.800 C 288.122 302.800,288.400 303.067,288.400 303.567 C 288.400 303.988,288.620 304.407,288.889 304.496 C 289.201 304.600,288.991 305.045,288.307 305.730 C 286.493 307.543,279.166 307.118,276.762 305.060 C 276.338 304.697,275.805 304.400,275.579 304.400 C 275.352 304.400,274.780 304.040,274.308 303.600 C 272.935 302.321,272.100 302.634,269.369 305.446 C 266.606 308.293,265.608 311.600,267.512 311.600 C 267.903 311.600,268.483 311.960,268.800 312.400 C 269.117 312.840,269.614 313.200,269.905 313.200 C 270.196 313.200,270.820 313.560,271.292 314.000 C 271.764 314.440,272.567 314.800,273.075 314.800 C 273.584 314.800,274.000 314.980,274.000 315.200 C 274.000 315.420,274.278 315.600,274.617 315.600 C 274.956 315.600,275.620 315.960,276.092 316.400 C 276.879 317.133,277.504 317.200,283.600 317.200 C 289.696 317.200,290.321 317.133,291.108 316.400 C 291.580 315.960,292.244 315.600,292.583 315.600 C 292.922 315.600,293.200 315.420,293.200 315.200 C 293.200 314.980,293.474 314.800,293.809 314.800 C 294.582 314.800,298.800 310.610,298.800 309.842 C 298.800 309.526,299.008 309.197,299.263 309.112 C 299.943 308.886,299.979 299.126,299.300 298.900 C 299.025 298.808,298.800 298.474,298.800 298.156 C 298.800 297.387,295.386 294.000,294.611 294.000 C 294.275 294.000,294.000 293.820,294.000 293.600 C 294.000 293.380,293.640 293.200,293.200 293.200 C 292.760 293.200,292.400 293.020,292.400 292.800 C 292.400 292.580,292.040 292.400,291.600 292.400 C 291.160 292.400,290.800 292.220,290.800 292.000 C 290.800 291.780,290.260 291.600,289.600 291.600 C 288.940 291.600,288.400 291.420,288.400 291.200 C 288.400 290.980,287.871 290.800,287.224 290.800 C 286.577 290.800,285.936 290.620,285.800 290.400 C 285.664 290.180,284.933 290.000,284.176 290.000 C 283.419 290.000,282.800 289.820,282.800 289.600 C 282.800 289.380,282.342 289.200,281.782 289.200 C 280.546 289.200,278.800 287.554,278.800 286.390 C 278.800 285.321,279.701 284.400,280.748 284.400 C 281.191 284.400,281.664 284.220,281.800 284.000 C 281.936 283.780,282.397 283.600,282.824 283.600 C 283.251 283.600,283.600 283.780,283.600 284.000 C 283.600 284.220,284.320 284.400,285.200 284.400 C 286.080 284.400,286.800 284.580,286.800 284.800 C 286.800 285.020,287.300 285.200,287.912 285.200 C 288.565 285.200,289.261 285.530,289.600 286.000 C 289.917 286.440,290.497 286.800,290.888 286.800 C 291.280 286.800,291.600 286.980,291.600 287.200 C 291.600 287.420,292.058 287.600,292.618 287.600 C 293.651 287.600,295.600 286.017,295.600 285.179 C 295.600 284.927,296.140 284.217,296.800 283.600 C 297.460 282.983,298.000 282.191,298.000 281.840 C 298.000 281.488,298.180 281.200,298.400 281.200 C 298.620 281.200,298.800 280.660,298.800 280.000 C 298.800 279.116,298.612 278.800,298.088 278.800 C 297.697 278.800,297.117 278.440,296.800 278.000 C 296.483 277.560,295.986 277.200,295.695 277.200 C 295.404 277.200,294.780 276.840,294.308 276.400 C 293.836 275.960,293.033 275.600,292.525 275.600 C 292.016 275.600,291.600 275.420,291.600 275.200 C 291.600 274.980,291.071 274.800,290.424 274.800 C 289.777 274.800,289.136 274.620,289.000 274.400 C 288.694 273.904,278.048 273.902,277.200 274.398 M299.600 275.325 C 299.600 276.096,299.934 277.008,300.400 277.508 C 300.840 277.980,301.200 278.604,301.200 278.895 C 301.200 279.186,301.560 279.683,302.000 280.000 C 302.440 280.317,302.800 280.857,302.800 281.200 C 302.800 281.543,303.160 282.083,303.600 282.400 C 304.040 282.717,304.400 283.297,304.400 283.688 C 304.400 284.080,304.580 284.400,304.800 284.400 C 305.020 284.400,305.200 284.636,305.200 284.925 C 305.200 285.213,305.560 285.836,306.000 286.308 C 306.440 286.780,306.800 287.404,306.800 287.695 C 306.800 287.986,307.160 288.483,307.600 288.800 C 308.040 289.117,308.400 289.657,308.400 290.000 C 308.400 290.343,308.760 290.883,309.200 291.200 C 309.640 291.517,310.000 292.097,310.000 292.488 C 310.000 292.880,310.180 293.200,310.400 293.200 C 310.620 293.200,310.800 293.436,310.800 293.725 C 310.800 294.013,311.160 294.636,311.600 295.108 C 312.040 295.580,312.400 296.162,312.400 296.400 C 312.400 296.638,312.760 297.220,313.200 297.692 C 313.640 298.164,314.000 298.787,314.000 299.075 C 314.000 299.364,314.180 299.600,314.400 299.600 C 314.654 299.600,314.800 302.579,314.800 307.738 C 314.800 317.784,314.439 317.200,320.651 317.200 C 326.399 317.200,326.000 317.892,326.000 307.920 C 326.000 302.640,326.146 299.600,326.400 299.600 C 326.620 299.600,326.800 299.280,326.800 298.888 C 326.800 298.497,327.160 297.917,327.600 297.600 C 328.040 297.283,328.400 296.743,328.400 296.400 C 328.400 296.057,328.760 295.517,329.200 295.200 C 329.640 294.883,330.000 294.386,330.000 294.095 C 330.000 293.804,330.360 293.180,330.800 292.708 C 331.240 292.236,331.600 291.613,331.600 291.325 C 331.600 291.036,331.780 290.800,332.000 290.800 C 332.220 290.800,332.400 290.480,332.400 290.088 C 332.400 289.697,332.760 289.117,333.200 288.800 C 333.640 288.483,334.000 287.943,334.000 287.600 C 334.000 287.257,334.360 286.717,334.800 286.400 C 335.240 286.083,335.600 285.586,335.600 285.295 C 335.600 285.004,335.960 284.380,336.400 283.908 C 336.840 283.436,337.200 282.813,337.200 282.525 C 337.200 282.236,337.380 282.000,337.600 282.000 C 337.820 282.000,338.000 281.680,338.000 281.288 C 338.000 280.897,338.360 280.317,338.800 280.000 C 339.240 279.683,339.600 279.186,339.600 278.895 C 339.600 278.604,339.960 277.980,340.400 277.508 C 340.866 277.008,341.200 276.096,341.200 275.325 L 341.200 274.000 335.453 274.000 L 329.706 274.000 328.653 275.591 C 328.074 276.467,327.600 277.289,327.600 277.419 C 327.600 277.549,327.060 278.441,326.400 279.400 C 325.740 280.359,325.200 281.259,325.200 281.400 C 325.200 281.541,324.660 282.441,324.000 283.400 C 323.340 284.359,322.800 285.337,322.800 285.572 C 322.800 285.807,322.620 286.000,322.400 286.000 C 322.180 286.000,322.000 286.360,322.000 286.800 C 322.000 287.240,321.841 287.600,321.647 287.600 C 321.452 287.600,321.194 287.980,321.073 288.444 C 320.812 289.442,318.800 287.825,318.800 286.618 C 318.800 286.278,318.620 286.000,318.400 286.000 C 318.180 286.000,318.000 285.722,318.000 285.383 C 318.000 285.044,317.640 284.380,317.200 283.908 C 316.760 283.436,316.400 282.813,316.400 282.525 C 316.400 282.236,316.220 282.000,316.000 282.000 C 315.780 282.000,315.600 281.640,315.600 281.200 C 315.600 280.760,315.420 280.400,315.200 280.400 C 314.980 280.400,314.800 280.040,314.800 279.600 C 314.800 279.160,314.620 278.800,314.400 278.800 C 314.180 278.800,314.000 278.564,314.000 278.275 C 314.000 277.987,313.640 277.364,313.200 276.892 C 312.760 276.420,312.400 275.833,312.400 275.588 C 312.400 274.253,311.290 274.000,305.429 274.000 L 299.600 274.000 299.600 275.325 M167.600 284.800 C 167.600 285.020,167.883 285.200,168.229 285.200 C 169.232 285.200,170.000 286.240,170.000 287.600 C 170.000 288.960,169.232 290.000,168.229 290.000 C 167.883 290.000,167.600 290.180,167.600 290.400 C 167.600 290.644,165.733 290.800,162.800 290.800 L 158.000 290.800 158.000 287.600 L 158.000 284.400 162.800 284.400 C 165.733 284.400,167.600 284.556,167.600 284.800 M207.600 290.800 C 207.600 291.240,207.780 291.600,208.000 291.600 C 208.220 291.600,208.400 292.039,208.400 292.576 C 208.400 293.113,208.580 293.664,208.800 293.800 C 209.020 293.936,209.200 294.397,209.200 294.824 C 209.200 295.251,209.360 295.600,209.555 295.600 C 209.750 295.600,209.988 296.140,210.085 296.800 L 210.261 298.000 206.931 298.000 C 203.867 298.000,203.600 297.936,203.600 297.200 C 203.600 296.760,203.780 296.400,204.000 296.400 C 204.220 296.400,204.400 296.040,204.400 295.600 C 204.400 295.160,204.580 294.800,204.800 294.800 C 205.020 294.800,205.200 294.260,205.200 293.600 C 205.200 292.940,205.380 292.400,205.600 292.400 C 205.820 292.400,206.000 292.122,206.000 291.783 C 206.000 291.127,206.799 290.041,207.300 290.015 C 207.465 290.007,207.600 290.360,207.600 290.800 M169.800 300.800 C 169.936 301.020,170.332 301.200,170.680 301.200 C 171.027 301.200,171.551 301.515,171.843 301.900 C 172.469 302.725,172.575 304.400,172.000 304.400 C 171.780 304.400,171.600 304.723,171.600 305.117 C 171.600 306.227,168.670 306.800,162.994 306.800 L 158.000 306.800 158.000 303.600 L 158.000 300.400 163.776 300.400 C 167.196 300.400,169.654 300.563,169.800 300.800 " stroke="none" fill="#f4941c" fill-rule="evenodd"></path><path id="path1" d="M196.500 58.210 C 196.005 58.739,195.600 59.408,195.600 59.697 C 195.600 59.987,195.240 60.483,194.800 60.800 C 194.360 61.117,194.000 61.625,194.000 61.928 C 194.000 62.231,193.460 62.983,192.800 63.600 C 192.140 64.217,191.600 64.937,191.600 65.200 C 191.600 65.463,191.060 66.183,190.400 66.800 C 189.740 67.417,189.200 68.169,189.200 68.472 C 189.200 68.775,188.840 69.283,188.400 69.600 C 187.960 69.917,187.600 70.425,187.600 70.728 C 187.600 71.031,187.060 71.783,186.400 72.400 C 185.740 73.017,185.200 73.769,185.200 74.072 C 185.200 74.375,184.840 74.883,184.400 75.200 C 183.960 75.517,183.600 75.980,183.600 76.229 C 183.600 76.478,183.060 77.246,182.400 77.937 C 181.740 78.628,181.200 79.392,181.200 79.636 C 181.200 79.880,180.660 80.583,180.000 81.200 C 179.340 81.817,178.800 82.569,178.800 82.872 C 178.800 83.175,178.440 83.683,178.000 84.000 C 177.560 84.317,177.200 84.825,177.200 85.128 C 177.200 85.431,176.660 86.183,176.000 86.800 C 175.340 87.417,174.800 88.169,174.800 88.472 C 174.800 88.775,174.440 89.283,174.000 89.600 C 173.560 89.917,173.200 90.380,173.200 90.629 C 173.200 90.878,172.660 91.646,172.000 92.337 C 171.340 93.028,170.800 93.792,170.800 94.036 C 170.800 94.280,170.260 94.983,169.600 95.600 C 168.940 96.217,168.400 96.937,168.400 97.200 C 168.400 97.463,167.860 98.183,167.200 98.800 C 166.540 99.417,166.000 100.169,166.000 100.472 C 166.000 100.775,165.640 101.283,165.200 101.600 C 164.760 101.917,164.400 102.425,164.400 102.728 C 164.400 103.031,163.860 103.783,163.200 104.400 C 162.540 105.017,162.000 105.769,162.000 106.072 C 162.000 106.375,161.640 106.883,161.200 107.200 C 160.760 107.517,160.400 108.025,160.400 108.328 C 160.400 108.631,159.860 109.383,159.200 110.000 C 158.540 110.617,158.000 111.337,158.000 111.600 C 158.000 111.863,157.460 112.583,156.800 113.200 C 156.140 113.817,155.600 114.569,155.600 114.872 C 155.600 115.175,155.240 115.683,154.800 116.000 C 154.360 116.317,154.000 116.825,154.000 117.128 C 154.000 117.431,153.460 118.183,152.800 118.800 C 152.140 119.417,151.600 120.169,151.600 120.472 C 151.600 120.775,151.240 121.283,150.800 121.600 C 150.360 121.917,150.000 122.425,150.000 122.728 C 150.000 123.031,149.460 123.783,148.800 124.400 C 148.140 125.017,147.600 125.720,147.600 125.964 C 147.600 126.208,147.060 126.972,146.400 127.663 C 145.740 128.354,145.200 129.122,145.200 129.371 C 145.200 129.620,144.840 130.083,144.400 130.400 C 143.960 130.717,143.600 131.225,143.600 131.528 C 143.600 131.831,143.060 132.583,142.400 133.200 C 141.740 133.817,141.200 134.537,141.200 134.800 C 141.200 135.063,140.660 135.783,140.000 136.400 C 139.340 137.017,138.800 137.769,138.800 138.072 C 138.800 138.375,138.440 138.883,138.000 139.200 C 137.560 139.517,137.200 140.025,137.200 140.328 C 137.200 140.631,136.660 141.383,136.000 142.000 C 135.340 142.617,134.800 143.337,134.800 143.600 C 134.800 143.863,134.260 144.583,133.600 145.200 C 132.940 145.817,132.400 146.537,132.400 146.800 C 132.400 147.063,131.860 147.783,131.200 148.400 C 130.540 149.017,130.000 149.769,130.000 150.072 C 130.000 150.375,129.640 150.883,129.200 151.200 C 128.760 151.517,128.400 152.009,128.400 152.292 C 128.400 152.575,127.860 153.372,127.200 154.063 C 126.540 154.754,126.000 155.522,126.000 155.771 C 126.000 156.020,125.640 156.483,125.200 156.800 C 124.760 157.117,124.400 157.625,124.400 157.928 C 124.400 158.231,123.860 158.983,123.200 159.600 C 122.540 160.217,122.000 160.969,122.000 161.272 C 122.000 161.575,121.640 162.083,121.200 162.400 C 120.760 162.717,120.400 163.225,120.400 163.528 C 120.400 163.831,119.860 164.583,119.200 165.200 C 118.540 165.817,118.000 166.569,118.000 166.872 C 118.000 167.175,117.640 167.683,117.200 168.000 C 116.760 168.317,116.400 168.825,116.400 169.128 C 116.400 169.431,115.860 170.183,115.200 170.800 C 114.540 171.417,114.000 172.120,114.000 172.364 C 114.000 172.608,113.460 173.372,112.800 174.063 C 112.140 174.754,111.600 175.522,111.600 175.771 C 111.600 176.020,111.240 176.483,110.800 176.800 C 110.360 177.117,110.000 177.625,110.000 177.928 C 110.000 178.231,109.460 178.983,108.800 179.600 C 108.140 180.217,107.600 180.937,107.600 181.200 C 107.600 181.463,107.060 182.183,106.400 182.800 C 105.740 183.417,105.200 184.137,105.200 184.400 C 105.200 184.663,104.660 185.383,104.000 186.000 C 103.340 186.617,102.800 187.369,102.800 187.672 C 102.800 187.975,102.440 188.483,102.000 188.800 C 101.560 189.117,101.200 189.625,101.200 189.928 C 101.200 190.231,100.660 190.983,100.000 191.600 C 99.340 192.217,98.800 192.969,98.800 193.272 C 98.800 193.575,98.440 194.083,98.000 194.400 C 97.560 194.717,97.200 195.225,97.200 195.528 C 97.200 195.831,96.660 196.583,96.000 197.200 C 95.340 197.817,94.800 198.569,94.800 198.872 C 94.800 199.175,94.440 199.683,94.000 200.000 C 93.560 200.317,93.200 200.825,93.200 201.128 C 93.200 201.431,92.660 202.183,92.000 202.800 C 91.340 203.417,90.800 204.120,90.800 204.364 C 90.800 204.608,90.260 205.372,89.600 206.063 C 88.940 206.754,88.400 207.522,88.400 207.771 C 88.400 208.020,88.040 208.483,87.600 208.800 C 87.160 209.117,86.800 209.625,86.800 209.928 C 86.800 210.231,86.260 210.983,85.600 211.600 C 84.940 212.217,84.400 212.969,84.400 213.272 C 84.400 213.575,84.040 214.083,83.600 214.400 C 83.160 214.717,82.800 215.225,82.800 215.528 C 82.800 215.831,82.260 216.583,81.600 217.200 C 80.940 217.817,80.400 218.520,80.400 218.764 C 80.400 219.008,79.860 219.772,79.200 220.463 C 78.540 221.154,78.000 221.922,78.000 222.171 C 78.000 222.420,77.640 222.883,77.200 223.200 C 76.760 223.517,76.400 224.025,76.400 224.328 C 76.400 224.631,75.860 225.383,75.200 226.000 C 74.540 226.617,74.000 227.320,74.000 227.564 C 74.000 227.808,73.460 228.572,72.800 229.263 C 72.140 229.954,71.600 230.722,71.600 230.971 C 71.600 231.220,71.240 231.683,70.800 232.000 C 70.360 232.317,70.000 232.825,70.000 233.128 C 70.000 233.431,69.460 234.183,68.800 234.800 C 68.140 235.417,67.600 236.169,67.600 236.472 C 67.600 236.775,67.240 237.283,66.800 237.600 C 66.360 237.917,66.000 238.380,66.000 238.629 C 66.000 238.878,65.460 239.646,64.800 240.337 C 64.140 241.028,63.600 241.776,63.600 242.000 C 63.600 242.224,63.060 242.972,62.400 243.663 C 61.740 244.354,61.200 245.122,61.200 245.371 C 61.200 245.620,60.840 246.083,60.400 246.400 C 59.960 246.717,59.600 247.225,59.600 247.528 C 59.600 247.831,59.060 248.583,58.400 249.200 C 57.740 249.817,57.200 250.609,57.200 250.960 C 57.200 251.312,57.020 251.600,56.800 251.600 C 56.580 251.600,56.400 252.500,56.400 253.600 C 56.400 254.700,56.580 255.600,56.800 255.600 C 57.020 255.600,57.200 255.883,57.200 256.229 C 57.200 257.037,58.163 258.000,58.971 258.000 C 59.317 258.000,59.600 258.135,59.600 258.300 C 59.600 258.465,122.960 258.600,200.400 258.600 C 277.840 258.600,341.200 258.465,341.200 258.300 C 341.200 258.135,341.483 258.000,341.829 258.000 C 342.174 258.000,342.714 257.743,343.029 257.429 C 343.343 257.114,343.600 256.574,343.600 256.229 C 343.600 255.883,343.780 255.600,344.000 255.600 C 344.220 255.600,344.400 254.700,344.400 253.600 C 344.400 252.500,344.220 251.600,344.000 251.600 C 343.780 251.600,343.600 251.312,343.600 250.960 C 343.600 250.609,343.060 249.817,342.400 249.200 C 341.740 248.583,341.200 247.863,341.200 247.600 C 341.200 247.337,340.660 246.617,340.000 246.000 C 339.340 245.383,338.800 244.631,338.800 244.328 C 338.800 244.025,338.440 243.517,338.000 243.200 C 337.560 242.883,337.200 242.375,337.200 242.072 C 337.200 241.769,336.660 241.017,336.000 240.400 C 335.340 239.783,334.800 239.063,334.800 238.800 C 334.800 238.537,334.260 237.817,333.600 237.200 C 332.940 236.583,332.400 235.831,332.400 235.528 C 332.400 235.225,332.040 234.717,331.600 234.400 C 331.160 234.083,330.800 233.575,330.800 233.272 C 330.800 232.969,330.260 232.217,329.600 231.600 C 328.940 230.983,328.400 230.263,328.400 230.000 C 328.400 229.737,327.860 229.017,327.200 228.400 C 326.540 227.783,326.000 227.080,326.000 226.836 C 326.000 226.592,325.460 225.828,324.800 225.137 C 324.140 224.446,323.600 223.678,323.600 223.429 C 323.600 223.180,323.240 222.717,322.800 222.400 C 322.360 222.083,322.000 221.575,322.000 221.272 C 322.000 220.969,321.460 220.217,320.800 219.600 C 320.140 218.983,319.600 218.263,319.600 218.000 C 319.600 217.737,319.060 217.017,318.400 216.400 C 317.740 215.783,317.200 215.031,317.200 214.728 C 317.200 214.425,316.840 213.917,316.400 213.600 C 315.960 213.283,315.600 212.820,315.600 212.571 C 315.600 212.322,315.060 211.554,314.400 210.863 C 313.740 210.172,313.200 209.408,313.200 209.164 C 313.200 208.920,312.660 208.217,312.000 207.600 C 311.340 206.983,310.800 206.231,310.800 205.928 C 310.800 205.625,310.440 205.117,310.000 204.800 C 309.560 204.483,309.200 204.020,309.200 203.771 C 309.200 203.522,308.660 202.754,308.000 202.063 C 307.340 201.372,306.800 200.608,306.800 200.364 C 306.800 200.120,306.260 199.417,305.600 198.800 C 304.940 198.183,304.400 197.475,304.400 197.226 C 304.400 196.552,301.721 194.000,301.013 194.000 C 300.676 194.000,300.400 193.820,300.400 193.600 C 300.400 193.335,277.600 193.200,232.800 193.200 C 195.620 193.200,165.200 193.060,165.200 192.888 C 165.200 192.717,165.560 192.317,166.000 192.000 C 166.440 191.683,166.800 191.148,166.800 190.812 C 166.800 190.225,250.965 190.032,251.551 190.617 C 251.943 191.009,291.156 190.795,291.400 190.400 C 291.536 190.180,291.919 190.000,292.252 190.000 C 293.040 190.000,294.000 189.027,294.000 188.229 C 294.000 187.883,294.180 187.600,294.400 187.600 C 294.620 187.600,294.800 186.700,294.800 185.600 C 294.800 184.500,294.620 183.600,294.400 183.600 C 294.180 183.600,294.000 183.312,294.000 182.960 C 294.000 182.609,293.460 181.817,292.800 181.200 C 292.140 180.583,291.600 179.863,291.600 179.600 C 291.600 179.337,291.060 178.617,290.400 178.000 C 289.740 177.383,289.200 176.663,289.200 176.400 C 289.200 176.137,288.660 175.417,288.000 174.800 C 287.340 174.183,286.800 173.431,286.800 173.128 C 286.800 172.825,286.440 172.317,286.000 172.000 C 285.560 171.683,285.200 171.175,285.200 170.872 C 285.200 170.569,284.660 169.817,284.000 169.200 C 283.340 168.583,282.800 167.863,282.800 167.600 C 282.800 167.337,282.260 166.617,281.600 166.000 C 280.940 165.383,280.400 164.631,280.400 164.328 C 280.400 164.025,280.040 163.517,279.600 163.200 C 279.160 162.883,278.800 162.375,278.800 162.072 C 278.800 161.769,278.260 161.017,277.600 160.400 C 276.940 159.783,276.400 159.063,276.400 158.800 C 276.400 158.537,275.860 157.817,275.200 157.200 C 274.540 156.583,274.000 155.831,274.000 155.528 C 274.000 155.225,273.640 154.717,273.200 154.400 C 272.760 154.083,272.400 153.575,272.400 153.272 C 272.400 152.969,271.860 152.217,271.200 151.600 C 270.540 150.983,270.000 150.231,270.000 149.928 C 270.000 149.625,269.640 149.117,269.200 148.800 C 268.760 148.483,268.400 147.980,268.400 147.683 C 268.400 146.951,267.400 146.000,266.629 146.000 C 266.283 146.000,266.000 145.820,266.000 145.600 C 266.000 145.380,265.670 145.200,265.267 145.200 C 264.863 145.200,264.435 145.102,264.315 144.981 C 264.194 144.861,249.719 144.759,232.148 144.755 C 214.577 144.750,200.425 144.654,200.700 144.540 C 200.975 144.426,201.200 144.065,201.200 143.738 C 201.200 141.978,200.841 142.000,229.371 142.000 C 247.124 142.000,256.400 141.863,256.400 141.600 C 256.400 141.380,256.683 141.200,257.029 141.200 C 257.837 141.200,258.800 140.237,258.800 139.429 C 258.800 139.083,258.980 138.800,259.200 138.800 C 259.420 138.800,259.600 138.080,259.600 137.200 C 259.600 136.320,259.420 135.600,259.200 135.600 C 258.980 135.600,258.800 135.280,258.800 134.888 C 258.800 134.497,258.440 133.917,258.000 133.600 C 257.560 133.283,257.200 132.820,257.200 132.571 C 257.200 132.322,256.660 131.554,256.000 130.863 C 255.340 130.172,254.800 129.408,254.800 129.164 C 254.800 128.920,254.260 128.217,253.600 127.600 C 252.940 126.983,252.400 126.263,252.400 126.000 C 252.400 125.737,251.860 125.017,251.200 124.400 C 250.540 123.783,250.000 123.031,250.000 122.728 C 250.000 122.425,249.640 121.917,249.200 121.600 C 248.760 121.283,248.400 120.775,248.400 120.472 C 248.400 120.169,247.860 119.417,247.200 118.800 C 246.540 118.183,246.000 117.480,246.000 117.236 C 246.000 116.992,245.460 116.228,244.800 115.537 C 244.140 114.846,243.600 114.078,243.600 113.829 C 243.600 113.580,243.240 113.117,242.800 112.800 C 242.360 112.483,242.000 111.975,242.000 111.672 C 242.000 111.369,241.460 110.617,240.800 110.000 C 240.140 109.383,239.600 108.631,239.600 108.328 C 239.600 108.025,239.240 107.517,238.800 107.200 C 238.360 106.883,238.000 106.375,238.000 106.072 C 238.000 105.769,237.460 105.017,236.800 104.400 C 236.140 103.783,235.600 103.063,235.600 102.800 C 235.600 102.537,235.060 101.817,234.400 101.200 C 233.740 100.583,233.200 99.863,233.200 99.600 C 233.200 99.337,232.660 98.617,232.000 98.000 C 231.340 97.383,230.800 96.663,230.800 96.400 C 230.800 96.137,230.260 95.417,229.600 94.800 C 228.940 94.183,228.400 93.431,228.400 93.128 C 228.400 92.825,228.040 92.317,227.600 92.000 C 227.160 91.683,226.800 91.175,226.800 90.872 C 226.800 90.569,226.260 89.817,225.600 89.200 C 224.940 88.583,224.400 87.863,224.400 87.600 C 224.400 87.337,223.860 86.617,223.200 86.000 C 222.540 85.383,222.000 84.631,222.000 84.328 C 222.000 84.025,221.640 83.517,221.200 83.200 C 220.760 82.883,220.400 82.375,220.400 82.072 C 220.400 81.769,219.860 81.017,219.200 80.400 C 218.540 79.783,218.000 79.063,218.000 78.800 C 218.000 78.537,217.460 77.817,216.800 77.200 C 216.140 76.583,215.600 75.831,215.600 75.528 C 215.600 75.225,215.240 74.717,214.800 74.400 C 214.360 74.083,214.000 73.620,214.000 73.371 C 214.000 73.122,213.460 72.354,212.800 71.663 C 212.140 70.972,211.600 70.208,211.600 69.964 C 211.600 69.720,211.060 69.017,210.400 68.400 C 209.740 67.783,209.200 67.080,209.200 66.836 C 209.200 66.592,208.660 65.828,208.000 65.137 C 207.340 64.446,206.800 63.678,206.800 63.429 C 206.800 63.180,206.440 62.717,206.000 62.400 C 205.560 62.083,205.200 61.588,205.200 61.301 C 205.200 58.336,198.584 55.985,196.500 58.210 M200.970 62.100 C 201.522 62.815,202.756 64.480,203.713 65.800 C 204.669 67.120,206.979 70.270,208.846 72.800 C 210.712 75.330,213.080 78.570,214.107 80.000 C 215.135 81.430,219.356 87.221,223.488 92.868 C 227.619 98.516,234.316 107.696,238.369 113.268 C 242.422 118.841,247.197 125.380,248.981 127.800 C 254.436 135.202,255.139 136.209,255.272 136.815 C 255.383 137.322,251.767 137.427,228.016 137.600 L 200.633 137.800 196.728 143.157 C 194.581 146.104,192.919 148.669,193.035 148.857 C 193.152 149.046,209.310 149.200,228.941 149.200 L 264.635 149.200 267.194 152.700 C 268.601 154.625,270.939 157.820,272.390 159.800 C 274.709 162.967,276.203 165.026,282.400 173.604 C 283.170 174.670,285.375 177.698,287.300 180.334 C 289.225 182.970,290.800 185.408,290.800 185.753 C 290.800 186.321,284.887 186.357,228.300 186.135 L 165.800 185.890 164.970 186.845 C 163.865 188.117,157.600 196.751,157.600 197.002 C 157.600 197.111,189.550 197.200,228.600 197.200 L 299.601 197.200 303.100 201.938 C 305.025 204.544,308.130 208.791,310.000 211.376 C 313.463 216.162,317.698 221.967,321.400 227.000 C 324.670 231.445,327.895 235.862,332.200 241.790 C 334.400 244.819,337.213 248.668,338.452 250.342 C 339.690 252.016,340.616 253.614,340.509 253.893 C 340.263 254.535,60.603 254.652,60.206 254.010 C 60.074 253.796,61.232 251.861,62.781 249.710 C 69.576 240.272,76.204 231.111,81.431 223.933 C 84.528 219.680,90.364 211.610,94.398 206.000 C 98.433 200.390,102.694 194.495,103.867 192.900 C 105.040 191.305,106.960 188.695,108.133 187.100 C 110.567 183.790,115.464 177.009,122.937 166.600 C 125.781 162.640,131.368 154.929,135.353 149.465 C 139.339 144.001,143.063 138.871,143.628 138.065 C 144.194 137.259,146.379 134.238,148.484 131.351 C 150.589 128.464,153.716 124.144,155.434 121.751 C 158.619 117.313,178.488 89.880,185.773 79.862 C 195.533 66.441,196.935 64.495,198.132 62.707 C 199.644 60.451,199.689 60.441,200.970 62.100 " stroke="none" fill="#f5f5f5" fill-rule="evenodd"></path><path id="path2" d="M191.400 73.057 C 187.000 79.135,181.420 86.858,179.000 90.218 C 176.580 93.579,172.002 99.900,168.826 104.264 C 165.650 108.629,160.719 115.440,157.867 119.400 C 155.015 123.360,152.206 127.230,151.625 128.000 C 151.043 128.770,148.371 132.460,145.687 136.200 C 143.002 139.940,138.183 146.600,134.979 151.000 C 128.479 159.924,128.804 159.475,114.505 179.253 C 100.543 198.564,88.933 214.606,74.594 234.400 C 67.980 243.530,62.159 251.585,61.657 252.300 L 60.746 253.600 200.420 253.600 L 340.095 253.600 339.111 252.300 C 338.569 251.585,337.229 249.740,336.132 248.200 C 335.035 246.660,329.194 238.650,323.153 230.400 C 317.111 222.150,309.324 211.485,305.848 206.700 C 302.373 201.915,299.320 197.999,299.064 197.998 C 298.809 197.997,266.920 197.994,228.200 197.993 C 159.704 197.990,156.309 197.931,157.027 196.745 C 157.411 196.111,164.396 186.365,164.829 185.860 C 164.989 185.673,193.218 185.546,227.560 185.579 C 264.081 185.613,290.000 185.489,290.000 185.280 C 290.000 185.083,288.864 183.410,287.475 181.561 C 286.087 179.712,282.221 174.420,278.885 169.800 C 270.969 158.839,265.369 151.189,264.613 150.307 C 264.043 149.641,261.936 149.600,228.004 149.600 C 198.465 149.600,192.000 149.505,192.000 149.072 C 192.000 148.572,197.065 141.401,199.537 138.400 L 200.691 137.000 227.443 136.909 C 242.156 136.858,254.237 136.678,254.288 136.509 C 254.369 136.244,239.252 115.275,228.960 101.375 C 227.179 98.969,223.832 94.390,221.523 91.200 C 209.161 74.119,200.282 62.189,199.868 62.103 C 199.610 62.050,195.800 66.980,191.400 73.057 " stroke="none" fill="#241c24" fill-rule="evenodd"></path><path id="path3" d="M198.344 63.100 C 197.193 64.489,196.706 65.200,196.904 65.200 C 197.014 65.200,197.586 64.570,198.173 63.800 C 199.263 62.371,199.395 61.832,198.344 63.100 M202.016 64.563 C 203.795 67.040,204.506 67.479,202.857 65.082 C 202.160 64.069,201.378 63.110,201.120 62.950 C 200.861 62.791,201.265 63.516,202.016 64.563 M192.768 70.700 C 190.734 73.505,188.627 76.385,188.087 77.100 C 187.547 77.815,187.204 78.400,187.325 78.400 C 187.446 78.400,189.474 75.745,191.831 72.500 C 194.188 69.255,196.292 66.375,196.507 66.100 C 196.722 65.825,196.801 65.600,196.682 65.600 C 196.564 65.600,194.802 67.895,192.768 70.700 M206.234 70.300 C 208.150 72.923,210.798 76.082,209.334 74.000 C 207.335 71.155,204.330 67.200,204.169 67.200 C 204.059 67.200,204.988 68.595,206.234 70.300 M210.816 76.563 C 212.595 79.040,213.306 79.479,211.657 77.082 C 210.960 76.069,210.178 75.110,209.920 74.950 C 209.661 74.791,210.065 75.516,210.816 76.563 M213.680 80.500 C 214.217 81.215,215.430 82.835,216.376 84.100 C 217.322 85.365,218.186 86.400,218.296 86.400 C 218.405 86.400,218.056 85.815,217.520 85.100 C 216.983 84.385,215.770 82.765,214.824 81.500 C 213.878 80.235,213.014 79.200,212.904 79.200 C 212.795 79.200,213.144 79.785,213.680 80.500 M183.901 82.900 C 180.811 87.105,179.922 88.400,180.127 88.400 C 180.226 88.400,181.678 86.510,183.353 84.200 C 185.029 81.890,186.316 80.000,186.215 80.000 C 186.114 80.000,185.073 81.305,183.901 82.900 M222.247 92.200 C 223.922 94.510,225.374 96.400,225.473 96.400 C 225.678 96.400,224.789 95.105,221.699 90.900 C 220.527 89.305,219.486 88.000,219.385 88.000 C 219.284 88.000,220.571 89.890,222.247 92.200 M179.315 89.300 C 177.581 91.567,176.666 92.920,177.009 92.713 C 177.481 92.427,180.137 88.800,179.874 88.800 C 179.777 88.800,179.526 89.025,179.315 89.300 M174.468 95.848 C 173.955 96.640,173.722 97.172,173.949 97.031 C 174.582 96.641,176.099 94.399,175.727 94.405 C 175.547 94.408,174.981 95.057,174.468 95.848 M226.340 97.916 C 226.833 98.609,227.444 99.304,227.697 99.460 C 227.950 99.617,227.754 99.177,227.260 98.484 C 226.767 97.791,226.156 97.096,225.903 96.940 C 225.650 96.783,225.846 97.223,226.340 97.916 M171.929 99.500 C 170.978 100.618,169.528 102.800,169.735 102.800 C 169.840 102.800,170.572 101.900,171.362 100.800 C 172.785 98.819,173.077 98.150,171.929 99.500 M229.216 101.763 C 229.968 102.809,230.756 103.773,230.967 103.903 C 231.178 104.033,230.735 103.284,229.984 102.237 C 229.232 101.191,228.444 100.227,228.233 100.097 C 228.022 99.967,228.465 100.716,229.216 101.763 M168.744 103.900 C 167.593 105.289,167.106 106.000,167.304 106.000 C 167.414 106.000,167.986 105.370,168.573 104.600 C 169.663 103.171,169.795 102.632,168.744 103.900 M232.608 106.358 C 233.415 107.481,234.157 108.400,234.257 108.400 C 234.532 108.400,232.052 104.880,231.566 104.579 C 231.332 104.435,231.801 105.235,232.608 106.358 M166.515 106.900 C 164.781 109.167,163.866 110.520,164.209 110.313 C 164.681 110.027,167.337 106.400,167.074 106.400 C 166.977 106.400,166.726 106.625,166.515 106.900 M235.375 110.132 C 235.991 110.939,236.576 111.600,236.675 111.600 C 236.953 111.600,235.221 109.260,234.709 108.944 C 234.459 108.789,234.759 109.324,235.375 110.132 M162.329 112.700 C 161.288 113.924,159.828 116.154,160.230 115.905 C 160.677 115.629,163.332 112.000,163.087 112.000 C 162.997 112.000,162.656 112.315,162.329 112.700 M238.016 113.763 C 238.768 114.809,239.556 115.773,239.767 115.903 C 239.978 116.033,239.535 115.284,238.784 114.237 C 238.032 113.191,237.244 112.227,237.033 112.097 C 236.822 111.967,237.265 112.716,238.016 113.763 M159.129 117.100 C 158.178 118.218,156.728 120.400,156.935 120.400 C 157.040 120.400,157.772 119.500,158.562 118.400 C 159.985 116.419,160.277 115.750,159.129 117.100 M241.216 118.163 C 241.968 119.209,242.756 120.173,242.967 120.303 C 243.178 120.433,242.735 119.684,241.984 118.637 C 241.232 117.591,240.444 116.627,240.233 116.497 C 240.022 116.367,240.465 117.116,241.216 118.163 M156.115 121.300 C 154.381 123.567,153.466 124.920,153.809 124.713 C 154.281 124.427,156.937 120.800,156.674 120.800 C 156.577 120.800,156.326 121.025,156.115 121.300 M244.573 122.818 C 246.831 125.974,247.635 126.656,245.588 123.678 C 244.634 122.292,243.664 121.040,243.433 120.897 C 243.201 120.754,243.714 121.618,244.573 122.818 M151.944 127.100 C 150.675 128.632,150.219 129.342,150.681 129.065 C 151.193 128.758,152.969 126.400,152.689 126.400 C 152.598 126.400,152.263 126.715,151.944 127.100 M248.227 127.800 C 249.600 129.600,249.868 129.603,248.704 127.805 C 248.207 127.038,247.656 126.408,247.480 126.405 C 247.303 126.402,247.640 127.030,248.227 127.800 M250.816 131.363 C 251.568 132.409,252.356 133.373,252.567 133.503 C 252.778 133.633,252.335 132.884,251.584 131.837 C 250.832 130.791,250.044 129.827,249.833 129.697 C 249.622 129.567,250.065 130.316,250.816 131.363 M148.729 131.500 C 147.688 132.724,146.228 134.954,146.630 134.705 C 147.077 134.429,149.732 130.800,149.487 130.800 C 149.397 130.800,149.056 131.115,148.729 131.500 M253.616 135.223 C 254.842 136.944,256.586 136.835,227.950 136.818 C 207.826 136.806,201.578 136.918,200.837 137.301 C 199.976 137.748,196.479 142.000,196.973 142.000 C 197.084 142.000,197.906 141.010,198.800 139.800 L 200.425 137.600 227.589 137.600 C 242.529 137.600,254.845 137.450,254.959 137.267 C 255.163 136.936,253.366 134.000,252.958 134.000 C 252.841 134.000,253.137 134.550,253.616 135.223 M143.028 139.400 C 141.364 141.710,140.086 143.600,140.189 143.600 C 140.362 143.600,141.098 142.627,144.950 137.300 C 145.785 136.145,146.375 135.200,146.261 135.200 C 146.146 135.200,144.692 137.090,143.028 139.400 M193.805 146.080 C 192.045 148.498,191.602 149.600,192.387 149.600 C 192.601 149.600,192.681 149.355,192.566 149.056 C 192.451 148.757,192.783 147.992,193.304 147.356 C 194.722 145.623,196.084 143.600,195.832 143.600 C 195.709 143.600,194.797 144.716,193.805 146.080 M139.315 144.500 C 137.581 146.767,136.666 148.120,137.009 147.913 C 137.481 147.627,140.137 144.000,139.874 144.000 C 139.777 144.000,139.526 144.225,139.315 144.500 M136.115 148.900 C 134.381 151.167,133.466 152.520,133.809 152.313 C 134.281 152.027,136.937 148.400,136.674 148.400 C 136.577 148.400,136.326 148.625,136.115 148.900 M266.016 152.163 C 266.768 153.209,267.556 154.173,267.767 154.303 C 267.978 154.433,267.535 153.684,266.784 152.637 C 266.032 151.591,265.244 150.627,265.033 150.497 C 264.822 150.367,265.265 151.116,266.016 152.163 M132.915 153.300 C 131.181 155.567,130.266 156.920,130.609 156.713 C 131.081 156.427,133.737 152.800,133.474 152.800 C 133.377 152.800,133.126 153.025,132.915 153.300 M269.408 156.758 C 270.215 157.881,270.957 158.800,271.057 158.800 C 271.332 158.800,268.852 155.280,268.366 154.979 C 268.132 154.835,268.601 155.635,269.408 156.758 M129.715 157.700 C 127.891 160.084,127.080 161.311,127.495 161.059 C 128.015 160.744,130.562 157.200,130.268 157.200 C 130.175 157.200,129.926 157.425,129.715 157.700 M271.991 160.388 C 272.457 161.041,273.042 161.702,273.291 161.856 C 273.541 162.011,273.241 161.476,272.625 160.668 C 271.288 158.915,270.784 158.692,271.991 160.388 M274.816 164.163 C 275.568 165.209,276.356 166.173,276.567 166.303 C 276.778 166.433,276.335 165.684,275.584 164.637 C 274.832 163.591,274.044 162.627,273.833 162.497 C 273.622 162.367,274.065 163.116,274.816 164.163 M125.529 163.500 C 124.578 164.618,123.128 166.800,123.335 166.800 C 123.440 166.800,124.172 165.900,124.962 164.800 C 126.385 162.819,126.677 162.150,125.529 163.500 M121.925 168.500 C 120.304 170.674,119.040 172.636,119.671 172.000 C 120.486 171.179,123.313 167.200,123.082 167.200 C 122.979 167.200,122.459 167.785,121.925 168.500 M279.008 169.958 C 279.815 171.081,280.557 172.000,280.657 172.000 C 280.932 172.000,278.452 168.480,277.966 168.179 C 277.732 168.035,278.201 168.835,279.008 169.958 M282.016 174.163 C 283.795 176.640,284.506 177.079,282.857 174.682 C 282.160 173.669,281.378 172.710,281.120 172.550 C 280.861 172.391,281.265 173.116,282.016 174.163 M118.515 173.300 C 116.781 175.567,115.866 176.920,116.209 176.713 C 116.681 176.427,119.337 172.800,119.074 172.800 C 118.977 172.800,118.726 173.025,118.515 173.300 M285.216 178.563 C 286.995 181.040,287.706 181.479,286.057 179.082 C 285.360 178.069,284.578 177.110,284.320 176.950 C 284.061 176.791,284.465 177.516,285.216 178.563 M114.344 179.100 C 113.193 180.489,112.706 181.200,112.904 181.200 C 113.014 181.200,113.586 180.570,114.173 179.800 C 115.263 178.371,115.395 177.832,114.344 179.100 M288.175 182.532 C 288.791 183.339,289.376 184.000,289.475 184.000 C 289.753 184.000,288.021 181.660,287.509 181.344 C 287.259 181.189,287.559 181.724,288.175 182.532 M108.768 186.700 C 106.734 189.505,104.604 192.421,104.035 193.180 C 103.466 193.939,103.200 194.439,103.443 194.291 C 103.687 194.143,105.475 191.813,107.416 189.111 C 109.356 186.410,111.383 183.615,111.920 182.900 C 112.456 182.185,112.799 181.600,112.681 181.600 C 112.563 181.600,110.802 183.895,108.768 186.700 M289.846 184.975 C 290.057 185.525,287.996 185.604,270.941 185.700 L 251.800 185.808 271.100 185.904 C 290.637 186.001,292.104 185.900,290.005 184.603 C 289.778 184.463,289.710 184.622,289.846 184.975 M167.500 185.493 C 168.435 185.577,169.965 185.577,170.900 185.493 C 171.835 185.409,171.070 185.340,169.200 185.340 C 167.330 185.340,166.565 185.409,167.500 185.493 M163.265 188.000 C 162.334 189.320,161.653 190.400,161.752 190.400 C 161.851 190.400,162.616 189.455,163.453 188.300 C 164.289 187.145,165.160 186.068,165.387 185.906 C 165.669 185.705,165.666 185.610,165.379 185.606 C 165.147 185.603,164.196 186.680,163.265 188.000 M160.915 191.300 C 159.091 193.684,158.280 194.911,158.695 194.659 C 159.215 194.344,161.762 190.800,161.468 190.800 C 161.375 190.800,161.126 191.025,160.915 191.300 M102.515 195.300 C 100.781 197.567,99.866 198.920,100.209 198.713 C 100.681 198.427,103.337 194.800,103.074 194.800 C 102.977 194.800,102.726 195.025,102.515 195.300 M157.341 196.234 C 156.764 197.114,156.748 197.322,157.232 197.628 C 157.564 197.838,187.029 197.949,228.200 197.895 L 298.600 197.802 228.400 197.703 C 152.987 197.596,156.796 197.677,157.766 196.196 C 158.125 195.648,158.328 195.200,158.218 195.200 C 158.108 195.200,157.714 195.665,157.341 196.234 M299.274 198.054 C 299.645 198.354,300.341 199.050,300.822 199.600 C 301.477 200.349,301.449 200.254,300.714 199.222 C 300.173 198.464,299.477 197.768,299.166 197.676 C 298.787 197.564,298.822 197.688,299.274 198.054 M99.315 199.700 C 97.581 201.967,96.666 203.320,97.009 203.113 C 97.481 202.827,100.137 199.200,99.874 199.200 C 99.777 199.200,99.526 199.425,99.315 199.700 M302.816 202.563 C 304.595 205.040,305.306 205.479,303.657 203.082 C 302.960 202.069,302.178 201.110,301.920 200.950 C 301.661 200.791,302.065 201.516,302.816 202.563 M95.129 205.500 C 94.178 206.618,92.728 208.800,92.935 208.800 C 93.040 208.800,93.772 207.900,94.562 206.800 C 95.985 204.819,96.277 204.150,95.129 205.500 M306.016 206.963 C 307.795 209.440,308.506 209.879,306.857 207.482 C 306.160 206.469,305.378 205.510,305.120 205.350 C 304.861 205.191,305.265 205.916,306.016 206.963 M91.929 209.900 C 90.978 211.018,89.528 213.200,89.735 213.200 C 89.840 213.200,90.572 212.300,91.362 211.200 C 92.785 209.219,93.077 208.550,91.929 209.900 M309.216 211.363 C 309.968 212.409,310.756 213.373,310.967 213.503 C 311.178 213.633,310.735 212.884,309.984 211.837 C 309.232 210.791,308.444 209.827,308.233 209.697 C 308.022 209.567,308.465 210.316,309.216 211.363 M88.325 214.900 C 86.704 217.074,85.440 219.036,86.071 218.400 C 86.886 217.579,89.713 213.600,89.482 213.600 C 89.379 213.600,88.859 214.185,88.325 214.900 M312.975 216.532 C 313.591 217.339,314.176 218.000,314.275 218.000 C 314.553 218.000,312.821 215.660,312.309 215.344 C 312.059 215.189,312.359 215.724,312.975 216.532 M315.286 219.700 C 315.825 220.415,317.211 222.305,318.365 223.900 C 319.520 225.495,320.552 226.800,320.659 226.800 C 320.877 226.800,320.032 225.564,316.899 221.300 C 315.727 219.705,314.664 218.400,314.537 218.400 C 314.409 218.400,314.746 218.985,315.286 219.700 M84.915 219.700 C 83.181 221.967,82.266 223.320,82.609 223.113 C 83.081 222.827,85.737 219.200,85.474 219.200 C 85.377 219.200,85.126 219.425,84.915 219.700 M81.529 224.300 C 80.488 225.524,79.028 227.754,79.430 227.505 C 79.877 227.229,82.532 223.600,82.287 223.600 C 82.197 223.600,81.856 223.915,81.529 224.300 M323.034 230.300 C 324.950 232.923,327.598 236.082,326.134 234.000 C 324.135 231.155,321.130 227.200,320.969 227.200 C 320.859 227.200,321.788 228.595,323.034 230.300 M78.329 228.700 C 77.288 229.924,75.828 232.154,76.230 231.905 C 76.677 231.629,79.332 228.000,79.087 228.000 C 78.997 228.000,78.656 228.315,78.329 228.700 M73.565 235.300 C 72.411 236.895,71.025 238.785,70.486 239.500 C 69.946 240.215,69.602 240.800,69.721 240.800 C 69.839 240.800,71.147 239.135,72.628 237.100 C 74.109 235.065,75.495 233.175,75.709 232.900 C 75.923 232.625,76.000 232.400,75.881 232.400 C 75.762 232.400,74.720 233.705,73.565 235.300 M328.227 237.400 C 329.600 239.200,329.868 239.203,328.704 237.405 C 328.207 236.638,327.656 236.008,327.480 236.005 C 327.303 236.002,327.640 236.630,328.227 237.400 M331.008 241.158 C 331.815 242.281,332.557 243.200,332.657 243.200 C 332.932 243.200,330.452 239.680,329.966 239.379 C 329.732 239.235,330.201 240.035,331.008 241.158 M67.929 243.100 C 66.978 244.218,65.528 246.400,65.735 246.400 C 65.840 246.400,66.572 245.500,67.362 244.400 C 68.785 242.419,69.077 241.750,67.929 243.100 M333.775 244.932 C 334.391 245.739,334.976 246.400,335.075 246.400 C 335.353 246.400,333.621 244.060,333.109 243.744 C 332.859 243.589,333.159 244.124,333.775 244.932 M64.729 247.500 C 63.778 248.618,62.328 250.800,62.535 250.800 C 62.640 250.800,63.372 249.900,64.162 248.800 C 65.585 246.819,65.877 246.150,64.729 247.500 M337.184 249.700 C 338.819 251.952,340.146 253.548,339.761 252.800 C 339.257 251.821,336.393 248.000,336.163 248.000 C 336.046 248.000,336.506 248.765,337.184 249.700 M61.199 252.402 C 60.547 253.317,60.469 253.651,60.872 253.804 C 61.162 253.914,124.130 253.958,200.800 253.902 L 340.200 253.799 200.473 253.699 L 60.746 253.600 61.600 252.400 C 62.070 251.740,62.364 251.200,62.254 251.200 C 62.144 251.200,61.669 251.741,61.199 252.402 " stroke="none" fill="#8c8484" fill-rule="evenodd"></path><path id="path4" d="M198.482 62.305 L 197.565 63.800 198.712 62.499 L 199.859 61.199 201.030 62.531 C 201.673 63.263,202.029 63.579,201.819 63.231 C 200.227 60.594,199.634 60.429,198.482 62.305 M196.915 64.500 C 195.181 66.767,194.266 68.120,194.609 67.913 C 195.081 67.627,197.737 64.000,197.474 64.000 C 197.377 64.000,197.126 64.225,196.915 64.500 M203.940 66.716 C 204.433 67.409,205.044 68.104,205.297 68.260 C 205.550 68.417,205.354 67.977,204.860 67.284 C 204.367 66.591,203.756 65.896,203.503 65.740 C 203.250 65.583,203.446 66.023,203.940 66.716 M193.715 68.900 C 191.981 71.167,191.066 72.520,191.409 72.313 C 191.881 72.027,194.537 68.400,194.274 68.400 C 194.177 68.400,193.926 68.625,193.715 68.900 M207.375 71.332 C 207.991 72.139,208.576 72.800,208.675 72.800 C 208.953 72.800,207.221 70.460,206.709 70.144 C 206.459 69.989,206.759 70.524,207.375 71.332 M209.591 74.388 C 210.057 75.041,210.642 75.702,210.891 75.856 C 211.141 76.011,210.841 75.476,210.225 74.668 C 208.888 72.915,208.384 72.692,209.591 74.388 M189.544 74.700 C 188.393 76.089,187.906 76.800,188.104 76.800 C 188.214 76.800,188.786 76.170,189.373 75.400 C 190.463 73.971,190.595 73.432,189.544 74.700 M212.812 78.722 C 213.766 80.108,214.736 81.360,214.967 81.503 C 215.441 81.796,212.592 77.729,211.672 76.800 C 211.345 76.470,211.858 77.335,212.812 78.722 M186.208 79.242 C 185.401 80.365,184.932 81.165,185.166 81.021 C 185.652 80.720,188.132 77.200,187.857 77.200 C 187.757 77.200,187.015 78.119,186.208 79.242 M184.115 82.100 C 182.381 84.367,181.466 85.720,181.809 85.513 C 182.281 85.227,184.937 81.600,184.674 81.600 C 184.577 81.600,184.326 81.825,184.115 82.100 M216.175 83.332 C 216.791 84.139,217.376 84.800,217.475 84.800 C 217.753 84.800,216.021 82.460,215.509 82.144 C 215.259 81.989,215.559 82.524,216.175 83.332 M218.786 86.980 C 219.459 87.958,220.201 88.877,220.434 89.021 C 220.668 89.165,220.199 88.365,219.392 87.242 C 217.590 84.734,217.093 84.519,218.786 86.980 M180.115 87.700 C 178.381 89.967,177.466 91.320,177.809 91.113 C 178.281 90.827,180.937 87.200,180.674 87.200 C 180.577 87.200,180.326 87.425,180.115 87.700 M222.016 91.363 C 222.768 92.409,223.556 93.373,223.767 93.503 C 223.978 93.633,223.535 92.884,222.784 91.837 C 222.032 90.791,221.244 89.827,221.033 89.697 C 220.822 89.567,221.265 90.316,222.016 91.363 M176.227 93.000 C 175.640 93.770,175.303 94.398,175.480 94.395 C 175.656 94.392,176.207 93.762,176.704 92.995 C 177.868 91.197,177.600 91.200,176.227 93.000 M225.143 95.718 C 225.840 96.731,226.622 97.690,226.880 97.850 C 227.139 98.009,226.735 97.284,225.984 96.237 C 224.205 93.760,223.494 93.321,225.143 95.718 M173.715 96.500 C 171.891 98.884,171.080 100.111,171.495 99.859 C 172.015 99.544,174.562 96.000,174.268 96.000 C 174.175 96.000,173.926 96.225,173.715 96.500 M228.416 100.163 C 229.168 101.209,229.956 102.173,230.167 102.303 C 230.378 102.433,229.935 101.684,229.184 100.637 C 228.432 99.591,227.644 98.627,227.433 98.497 C 227.222 98.367,227.665 99.116,228.416 100.163 M170.515 100.900 C 168.691 103.284,167.880 104.511,168.295 104.259 C 168.815 103.944,171.362 100.400,171.068 100.400 C 170.975 100.400,170.726 100.625,170.515 100.900 M231.140 103.916 C 231.633 104.609,232.244 105.304,232.497 105.460 C 232.750 105.617,232.554 105.177,232.060 104.484 C 231.567 103.791,230.956 103.096,230.703 102.940 C 230.450 102.783,230.646 103.223,231.140 103.916 M167.315 105.300 C 165.581 107.567,164.666 108.920,165.009 108.713 C 165.481 108.427,168.137 104.800,167.874 104.800 C 167.777 104.800,167.526 105.025,167.315 105.300 M233.986 107.780 C 234.659 108.758,235.401 109.677,235.634 109.821 C 235.868 109.965,235.399 109.165,234.592 108.042 C 232.790 105.534,232.293 105.319,233.986 107.780 M163.008 111.242 C 162.201 112.365,161.732 113.165,161.966 113.021 C 162.452 112.720,164.932 109.200,164.657 109.200 C 164.557 109.200,163.815 110.119,163.008 111.242 M237.216 112.163 C 237.968 113.209,238.756 114.173,238.967 114.303 C 239.178 114.433,238.735 113.684,237.984 112.637 C 237.232 111.591,236.444 110.627,236.233 110.497 C 236.022 110.367,236.465 111.116,237.216 112.163 M159.808 115.642 C 159.001 116.765,158.532 117.565,158.766 117.421 C 159.252 117.120,161.732 113.600,161.457 113.600 C 161.357 113.600,160.615 114.519,159.808 115.642 M240.416 116.563 C 241.168 117.609,241.956 118.573,242.167 118.703 C 242.378 118.833,241.935 118.084,241.184 117.037 C 240.432 115.991,239.644 115.027,239.433 114.897 C 239.222 114.767,239.665 115.516,240.416 116.563 M156.915 119.700 C 155.181 121.967,154.266 123.320,154.609 123.113 C 155.081 122.827,157.737 119.200,157.474 119.200 C 157.377 119.200,157.126 119.425,156.915 119.700 M243.616 120.963 C 244.368 122.009,245.156 122.973,245.367 123.103 C 245.578 123.233,245.135 122.484,244.384 121.437 C 243.632 120.391,242.844 119.427,242.633 119.297 C 242.422 119.167,242.865 119.916,243.616 120.963 M152.175 126.268 C 151.559 127.076,151.259 127.611,151.509 127.456 C 152.021 127.140,153.753 124.800,153.475 124.800 C 153.376 124.800,152.791 125.461,152.175 126.268 M149.408 130.042 C 148.601 131.165,148.132 131.965,148.366 131.821 C 148.852 131.520,151.332 128.000,151.057 128.000 C 150.957 128.000,150.215 128.919,149.408 130.042 M249.104 128.500 C 251.489 131.467,255.138 136.976,254.935 137.305 C 254.783 137.551,254.869 137.604,255.145 137.434 C 255.402 137.275,255.492 136.932,255.344 136.672 C 254.674 135.498,249.125 128.000,248.925 128.000 C 248.803 128.000,248.883 128.225,249.104 128.500 M145.323 135.700 C 143.577 138.030,142.667 139.562,143.956 138.000 C 145.301 136.371,147.264 133.600,147.073 133.600 C 146.976 133.600,146.188 134.545,145.323 135.700 M199.944 138.300 C 198.793 139.689,198.306 140.400,198.504 140.400 C 198.614 140.400,199.186 139.770,199.773 139.000 C 200.863 137.571,200.995 137.032,199.944 138.300 M140.559 142.300 C 137.287 146.764,137.315 146.723,138.072 146.000 C 138.911 145.200,143.286 139.200,143.031 139.200 C 142.921 139.200,141.809 140.595,140.559 142.300 M197.529 141.500 C 196.488 142.724,195.028 144.954,195.430 144.705 C 195.877 144.429,198.532 140.800,198.287 140.800 C 198.197 140.800,197.856 141.115,197.529 141.500 M193.218 147.468 C 191.651 149.460,190.503 149.394,228.633 149.506 L 264.600 149.612 266.600 152.436 C 267.700 153.989,268.870 155.471,269.199 155.730 C 269.529 155.988,269.335 155.570,268.769 154.800 C 268.202 154.030,267.039 152.455,266.184 151.300 L 264.629 149.200 228.938 149.200 C 208.745 149.200,193.152 149.047,193.029 148.847 C 192.909 148.653,193.182 148.023,193.634 147.447 C 194.087 146.871,194.368 146.400,194.258 146.400 C 194.148 146.400,193.680 146.880,193.218 147.468 M136.915 147.300 C 135.181 149.567,134.266 150.920,134.609 150.713 C 135.081 150.427,137.737 146.800,137.474 146.800 C 137.377 146.800,137.126 147.025,136.915 147.300 M133.715 151.700 C 131.981 153.967,131.066 155.320,131.409 155.113 C 131.881 154.827,134.537 151.200,134.274 151.200 C 134.177 151.200,133.926 151.425,133.715 151.700 M130.515 156.100 C 128.781 158.367,127.866 159.720,128.209 159.513 C 128.681 159.227,131.337 155.600,131.074 155.600 C 130.977 155.600,130.726 155.825,130.515 156.100 M271.280 158.900 C 271.817 159.615,273.030 161.235,273.976 162.500 C 274.922 163.765,275.787 164.800,275.897 164.800 C 276.008 164.800,275.921 164.575,275.705 164.300 C 275.489 164.025,274.290 162.405,273.041 160.700 C 271.791 158.995,270.664 157.600,270.537 157.600 C 270.409 157.600,270.744 158.185,271.280 158.900 M127.315 160.500 C 125.491 162.884,124.680 164.111,125.095 163.859 C 125.615 163.544,128.162 160.000,127.868 160.000 C 127.775 160.000,127.526 160.225,127.315 160.500 M123.315 166.100 C 121.581 168.367,120.666 169.720,121.009 169.513 C 121.481 169.227,124.137 165.600,123.874 165.600 C 123.777 165.600,123.526 165.825,123.315 166.100 M277.591 167.588 C 278.057 168.241,278.642 168.902,278.891 169.056 C 279.141 169.211,278.841 168.676,278.225 167.868 C 276.888 166.115,276.384 165.892,277.591 167.588 M280.740 171.916 C 281.233 172.609,281.844 173.304,282.097 173.460 C 282.350 173.617,282.154 173.177,281.660 172.484 C 281.167 171.791,280.556 171.096,280.303 170.940 C 280.050 170.783,280.246 171.223,280.740 171.916 M116.972 174.900 C 115.491 176.935,114.082 178.860,113.840 179.177 C 113.512 179.607,113.520 179.681,113.875 179.469 C 114.136 179.312,115.196 177.973,116.231 176.492 C 117.266 175.011,118.559 173.215,119.104 172.500 C 119.649 171.785,119.998 171.200,119.879 171.200 C 119.761 171.200,118.453 172.865,116.972 174.900 M283.940 176.316 C 284.433 177.009,285.044 177.704,285.297 177.860 C 285.550 178.017,285.354 177.577,284.860 176.884 C 284.367 176.191,283.756 175.496,283.503 175.340 C 283.250 175.183,283.446 175.623,283.940 176.316 M286.743 180.118 C 287.440 181.131,288.222 182.090,288.480 182.250 C 288.739 182.409,288.335 181.684,287.584 180.637 C 285.805 178.160,285.094 177.721,286.743 180.118 M112.915 180.500 C 111.181 182.767,110.266 184.120,110.609 183.913 C 111.081 183.627,113.737 180.000,113.474 180.000 C 113.377 180.000,113.126 180.225,112.915 180.500 M289.567 183.862 C 290.025 184.556,290.400 185.316,290.400 185.552 C 290.400 185.856,272.472 185.906,228.689 185.725 C 164.023 185.457,165.324 185.433,164.447 186.885 C 163.900 187.791,163.905 187.791,164.943 186.834 L 165.992 185.868 228.396 186.125 C 297.857 186.410,292.192 186.625,289.765 183.800 L 288.734 182.600 289.567 183.862 M108.744 186.300 C 107.593 187.689,107.106 188.400,107.304 188.400 C 107.414 188.400,107.986 187.770,108.573 187.000 C 109.663 185.571,109.795 185.032,108.744 186.300 M163.315 188.500 C 161.581 190.767,160.666 192.120,161.009 191.913 C 161.481 191.627,164.137 188.000,163.874 188.000 C 163.777 188.000,163.526 188.225,163.315 188.500 M106.515 189.300 C 104.781 191.567,103.866 192.920,104.209 192.713 C 104.681 192.427,107.337 188.800,107.074 188.800 C 106.977 188.800,106.726 189.025,106.515 189.300 M103.129 193.900 C 102.088 195.124,100.628 197.354,101.030 197.105 C 101.477 196.829,104.132 193.200,103.887 193.200 C 103.797 193.200,103.456 193.515,103.129 193.900 M159.144 194.300 C 157.993 195.689,157.506 196.400,157.704 196.400 C 157.814 196.400,158.386 195.770,158.973 195.000 C 160.063 193.571,160.195 193.032,159.144 194.300 M157.462 197.300 C 157.564 197.465,189.527 197.600,228.492 197.600 C 295.380 197.600,299.383 197.639,300.169 198.300 C 300.999 198.999,300.999 198.999,300.240 198.102 L 299.480 197.204 228.378 197.102 C 189.272 197.046,157.360 197.135,157.462 197.300 M100.115 198.100 C 98.381 200.367,97.466 201.720,97.809 201.513 C 98.281 201.227,100.937 197.600,100.674 197.600 C 100.577 197.600,100.326 197.825,100.115 198.100 M301.591 200.388 C 302.057 201.041,302.642 201.702,302.891 201.856 C 303.141 202.011,302.841 201.476,302.225 200.668 C 300.888 198.915,300.384 198.692,301.591 200.388 M95.808 204.042 C 95.001 205.165,94.532 205.965,94.766 205.821 C 95.252 205.520,97.732 202.000,97.457 202.000 C 97.357 202.000,96.615 202.919,95.808 204.042 M304.740 204.716 C 305.233 205.409,305.844 206.104,306.097 206.260 C 306.350 206.417,306.154 205.977,305.660 205.284 C 305.167 204.591,304.556 203.896,304.303 203.740 C 304.050 203.583,304.246 204.023,304.740 204.716 M92.175 209.068 C 91.559 209.876,91.259 210.411,91.509 210.256 C 92.021 209.940,93.753 207.600,93.475 207.600 C 93.376 207.600,92.791 208.261,92.175 209.068 M308.416 209.763 C 309.168 210.809,309.956 211.773,310.167 211.903 C 310.378 212.033,309.935 211.284,309.184 210.237 C 308.432 209.191,307.644 208.227,307.433 208.097 C 307.222 207.967,307.665 208.716,308.416 209.763 M89.715 212.500 C 87.981 214.767,87.066 216.120,87.409 215.913 C 87.881 215.627,90.537 212.000,90.274 212.000 C 90.177 212.000,89.926 212.225,89.715 212.500 M311.543 214.118 C 312.240 215.131,313.016 216.086,313.267 216.241 C 313.518 216.397,313.153 215.695,312.457 214.682 C 311.760 213.669,310.984 212.714,310.733 212.559 C 310.482 212.403,310.847 213.105,311.543 214.118 M314.391 217.988 C 314.857 218.641,315.442 219.302,315.691 219.456 C 315.941 219.611,315.641 219.076,315.025 218.268 C 313.688 216.515,313.184 216.292,314.391 217.988 M85.715 218.100 C 83.981 220.367,83.066 221.720,83.409 221.513 C 83.881 221.227,86.537 217.600,86.274 217.600 C 86.177 217.600,85.926 217.825,85.715 218.100 M317.775 222.532 C 318.391 223.339,318.976 224.000,319.075 224.000 C 319.353 224.000,317.621 221.660,317.109 221.344 C 316.859 221.189,317.159 221.724,317.775 222.532 M81.775 223.468 C 81.159 224.276,80.859 224.811,81.109 224.656 C 81.621 224.340,83.353 222.000,83.075 222.000 C 82.976 222.000,82.391 222.661,81.775 223.468 M320.740 226.716 C 321.233 227.409,321.844 228.104,322.097 228.260 C 322.350 228.417,322.154 227.977,321.660 227.284 C 321.167 226.591,320.556 225.896,320.303 225.740 C 320.050 225.583,320.246 226.023,320.740 226.716 M78.575 227.868 C 77.959 228.676,77.659 229.211,77.909 229.056 C 78.421 228.740,80.153 226.400,79.875 226.400 C 79.776 226.400,79.191 227.061,78.575 227.868 M323.616 230.563 C 324.368 231.609,325.156 232.573,325.367 232.703 C 325.578 232.833,325.135 232.084,324.384 231.037 C 323.632 229.991,322.844 229.027,322.633 228.897 C 322.422 228.767,322.865 229.516,323.616 230.563 M74.897 232.900 C 70.994 238.264,70.345 239.200,70.534 239.200 C 70.645 239.200,71.680 237.895,72.835 236.300 C 73.989 234.705,75.375 232.815,75.914 232.100 C 76.454 231.385,76.789 230.800,76.660 230.800 C 76.531 230.800,75.738 231.745,74.897 232.900 M326.468 234.552 C 326.981 235.343,327.547 235.992,327.727 235.995 C 328.099 236.001,326.582 233.759,325.949 233.369 C 325.722 233.228,325.955 233.760,326.468 234.552 M329.591 238.788 C 330.057 239.441,330.642 240.102,330.891 240.256 C 331.141 240.411,330.841 239.876,330.225 239.068 C 328.888 237.315,328.384 237.092,329.591 238.788 M69.715 240.100 C 67.891 242.484,67.080 243.711,67.495 243.459 C 68.015 243.144,70.562 239.600,70.268 239.600 C 70.175 239.600,69.926 239.825,69.715 240.100 M332.740 243.116 C 333.233 243.809,333.844 244.504,334.097 244.660 C 334.350 244.817,334.154 244.377,333.660 243.684 C 333.167 242.991,332.556 242.296,332.303 242.140 C 332.050 241.983,332.246 242.423,332.740 243.116 M65.544 245.900 C 64.275 247.432,63.819 248.142,64.281 247.865 C 64.793 247.558,66.569 245.200,66.289 245.200 C 66.198 245.200,65.863 245.515,65.544 245.900 M335.586 246.980 C 336.259 247.958,337.001 248.877,337.234 249.021 C 337.468 249.165,336.999 248.365,336.192 247.242 C 334.390 244.734,333.893 244.519,335.586 246.980 M61.406 251.592 C 60.601 252.688,60.057 253.768,60.195 253.992 C 60.627 254.691,340.258 254.547,340.526 253.848 C 340.643 253.544,340.197 252.689,339.535 251.948 C 338.615 250.917,338.528 250.871,339.166 251.754 C 339.625 252.389,340.000 253.154,340.000 253.454 C 340.000 254.032,61.253 254.319,60.675 253.742 C 60.533 253.600,61.059 252.610,61.843 251.542 C 62.627 250.474,63.178 249.600,63.068 249.600 C 62.958 249.600,62.210 250.497,61.406 251.592 " stroke="none" fill="#8c8c8c" fill-rule="evenodd"></path></g></svg>